<?xml version="1.0" encoding="UTF-8"?>
<svg version="1.1" xmlns="http://www.w3.org/2000/svg" width="1024" height="1024">
<path d="M0 0 C0.86920847 -0.00250352 1.73841695 -0.00500704 2.63396508 -0.00758642 C4.08553927 -0.00407467 4.08553927 -0.00407467 5.5664382 -0.00049198 C6.58875853 -0.00194542 7.61107885 -0.00339886 8.66437858 -0.00489634 C12.13604668 -0.00858464 15.60767164 -0.00505692 19.0793395 -0.00163448 C21.57499432 -0.00278518 24.07064897 -0.00437236 26.56630325 -0.00636172 C32.01605527 -0.00968221 37.46579375 -0.00985609 42.91554594 -0.00731456 C51.0192666 -0.00354554 59.12297886 -0.00545878 67.22669946 -0.00852287 C81.69655627 -0.0138 96.16640868 -0.0133277 110.63626592 -0.01044396 C123.29875353 -0.00793267 135.96123952 -0.0072697 148.62372732 -0.0084666 C149.46225326 -0.00854299 150.3007792 -0.00861937 151.16471501 -0.00869807 C154.56819558 -0.00900939 157.97167614 -0.00932779 161.37515671 -0.00965784 C193.33055904 -0.01271981 225.28595856 -0.00993867 257.24136046 -0.00456094 C285.65866846 0.00018499 314.07597198 -0.00023962 342.49327993 -0.00502193 C374.3886268 -0.01037156 406.28397118 -0.01250269 438.17931843 -0.00940967 C441.57675282 -0.00908893 444.97418721 -0.00877609 448.37162161 -0.0084666 C449.62650978 -0.00834799 449.62650978 -0.00834799 450.90674924 -0.00822697 C463.56415895 -0.00708743 476.22156688 -0.00842362 488.87897635 -0.01094615 C503.26478947 -0.01379878 517.65059749 -0.01310481 532.03640997 -0.00766541 C540.09684447 -0.00471859 548.15726791 -0.00455255 556.21770212 -0.00831159 C562.21965449 -0.01080296 568.22159234 -0.00812135 574.22354382 -0.00333701 C576.66429603 -0.00221162 579.1050497 -0.00280666 581.54580098 -0.0052128 C584.8401927 -0.00821359 588.13452237 -0.00517563 591.42891073 -0.00049198 C592.39662686 -0.00283314 593.36434299 -0.00517431 594.36138386 -0.00758642 C595.23059233 -0.0050829 596.0998008 -0.00257938 596.99534893 0 C597.74991543 0.00006776 598.50448193 0.00013552 599.28191409 0.00020533 C600.99767447 0.12534916 600.99767447 0.12534916 601.99767447 1.12534916 C604.83474534 1.33637096 607.65665092 1.5014273 610.49767447 1.62534916 C618.86253933 1.99021403 618.86253933 1.99021403 619.99767447 3.12534916 C621.02892447 3.26972416 622.06017447 3.41409916 623.12267447 3.56284916 C626.94112839 4.11714086 630.31986552 4.99948928 633.99767447 6.12534916 C633.99767447 6.78534916 633.99767447 7.44534916 633.99767447 8.12534916 C635.97767447 8.12534916 637.95767447 8.12534916 639.99767447 8.12534916 C639.99767447 8.78534916 639.99767447 9.44534916 639.99767447 10.12534916 C641.04954947 10.08409916 642.10142447 10.04284916 643.18517447 10.00034916 C646.7377762 10.11682791 648.84634087 10.59742985 651.99767447 12.12534916 C651.99767447 12.78534916 651.99767447 13.44534916 651.99767447 14.12534916 C653.31767447 14.12534916 654.63767447 14.12534916 655.99767447 14.12534916 C655.99767447 14.78534916 655.99767447 15.44534916 655.99767447 16.12534916 C656.86392447 16.34191166 656.86392447 16.34191166 657.74767447 16.56284916 C659.8310078 17.0836825 661.91434113 17.60451583 663.99767447 18.12534916 C663.99767447 18.78534916 663.99767447 19.44534916 663.99767447 20.12534916 C665.31767447 20.12534916 666.63767447 20.12534916 667.99767447 20.12534916 C667.99767447 20.78534916 667.99767447 21.44534916 667.99767447 22.12534916 C668.53392447 22.22847416 669.07017447 22.33159916 669.62267447 22.43784916 C672.6226949 23.30627613 675.23562796 24.68155213 677.99767447 26.12534916 C677.99767447 26.78534916 677.99767447 27.44534916 677.99767447 28.12534916 C678.92579947 28.34191166 678.92579947 28.34191166 679.87267447 28.56284916 C681.99767447 29.12534916 681.99767447 29.12534916 683.99767447 30.12534916 C683.99767447 30.78534916 683.99767447 31.44534916 683.99767447 32.12534916 C685.01667837 32.44052495 685.01667837 32.44052495 686.05626822 32.76206791 C689.96149411 34.57205973 692.84137609 37.11500053 696.06017447 39.93784916 C696.67183462 40.45927495 697.28349478 40.98070073 697.91369009 41.51792729 C701.34973398 44.49335556 704.20598409 47.52110857 706.99767447 51.12534916 C708.17136587 52.25070073 708.17136587 52.25070073 709.36876822 53.39878666 C713.36665562 57.545184 716.40451803 62.30303678 719.62462759 67.06284916 C720.38356314 68.1649976 720.38356314 68.1649976 721.15783072 69.28941166 C721.60779409 69.95408452 722.05775747 70.61875737 722.52135611 71.30357182 C724.14455532 73.30660019 725.88385839 74.6636588 727.99767447 76.12534916 C726.9183909 70.36917016 724.77413637 67.43413875 720.81798697 63.18003666 C717.4496447 59.37800227 713.99767447 55.32432497 713.99767447 50.12534916 C713.33767447 50.12534916 712.67767447 50.12534916 711.99767447 50.12534916 C711.99767447 48.14534916 711.99767447 46.16534916 711.99767447 44.12534916 C715.82767469 44.67249205 717.50487153 46.23048124 719.99767447 49.12534916 C720.67829947 50.27003666 720.67829947 50.27003666 721.37267447 51.43784916 C722.76089464 53.73375176 724.07660399 55.36099707 725.87267447 57.31284916 C729.90588642 61.90062776 733.99767447 67.87793832 733.99767447 74.12534916 C734.98767447 74.45534916 735.97767447 74.78534916 736.99767447 75.12534916 C736.99767447 75.78534916 736.99767447 76.44534916 736.99767447 77.12534916 C737.65767447 77.12534916 738.31767447 77.12534916 738.99767447 77.12534916 C740.9715526 81.88587878 741.00469826 85.09023017 739.99767447 90.12534916 C739.00767447 89.79534916 738.01767447 89.46534916 736.99767447 89.12534916 C735.81017447 86.06284916 735.81017447 86.06284916 734.99767447 83.12534916 C734.33767447 83.12534916 733.67767447 83.12534916 732.99767447 83.12534916 C732.99767447 82.46534916 732.99767447 81.80534916 732.99767447 81.12534916 C731.67767447 80.79534916 730.35767447 80.46534916 728.99767447 80.12534916 C730.46394469 84.2309058 731.95378264 88.14839918 733.99767447 92.00034916 C735.96139808 95.78593042 737.11774156 99.61181831 738.18908072 103.73081791 C738.92421092 106.20482995 738.92421092 106.20482995 740.45470572 108.48472416 C746.59759319 118.99761513 746.35287321 132.64226359 746.60875845 144.42590153 C746.62758294 145.1865322 746.64640743 145.94716287 746.66580236 146.73084296 C747.22713149 169.61253402 747.12526222 192.5041229 747.09908104 215.39088869 C747.09327986 221.36654702 747.09236073 227.34220508 747.09129736 233.31786565 C747.08898516 245.51050677 747.08218808 257.7031412 747.07283926 269.89577878 C747.06014365 286.53360302 747.05417332 303.1714251 747.0499059 319.8092534 C747.04790161 327.58879812 747.04557397 335.36834275 747.04316092 343.14788735 C747.0429199 343.92606825 747.04267889 344.70424915 747.04243057 345.50601129 C747.03664243 363.9516348 747.02768321 382.39725654 747.01818228 400.84287846 C747.01776863 401.64822487 747.01735499 402.45357128 747.01692881 403.28332212 C747.01104948 414.72294719 747.00503065 426.16257219 746.99897647 437.60219717 C746.99159562 451.55123931 746.98428951 465.50028149 746.97716665 479.44932377 C746.97675206 480.25892804 746.97633747 481.06853231 746.97591032 481.90267004 C746.96646388 500.3829123 746.95791765 518.86315439 746.95218801 537.34339821 C746.95182652 538.50753076 746.95182652 538.50753076 746.95145773 539.69518114 C746.94907289 547.44111983 746.94684482 555.18705855 746.94485148 562.93299735 C746.94053713 579.56216951 746.93346636 596.19133401 746.92080364 612.82050204 C746.91163358 624.91667557 746.90586705 637.01284653 746.90368629 649.10902338 C746.9023944 655.66163456 746.89930616 662.21423634 746.89192724 668.76684391 C746.88520556 674.75795967 746.88303642 680.74905876 746.88456285 686.74017794 C746.88429026 688.91279787 746.88230186 691.08541837 746.87847006 693.25803494 C746.87352002 696.19990603 746.8746789 699.14171242 746.87741995 702.0835849 C746.87450709 702.93613194 746.87159423 703.78867897 746.8685931 704.66706076 C746.87866215 708.63516308 747.06885186 712.24428054 747.99767447 716.12534916 C748.08573107 717.83198583 748.12825519 719.54144375 748.13048697 721.25034916 C748.13177603 722.20425541 748.13306509 723.15816166 748.13439322 724.14097416 C748.13052603 725.12581791 748.12665884 726.11066166 748.12267447 727.12534916 C748.12654165 728.11019291 748.13040884 729.09503666 748.13439322 730.10972416 C748.13310415 731.06363041 748.13181509 732.01753666 748.13048697 733.00034916 C748.12879507 734.29585698 748.12879507 734.29585698 748.127069 735.61753666 C747.99343239 738.2075654 747.53206254 740.59126465 746.99767447 743.12534916 C746.93234011 745.06185935 746.91183144 747.00037778 746.93517447 748.93784916 C746.94870962 750.40157963 746.94870962 750.40157963 746.96251822 751.89488041 C746.97411978 752.6309351 746.98572134 753.36698979 746.99767447 754.12534916 C747.98767447 753.79534916 748.97767447 753.46534916 749.99767447 753.12534916 C750.65767447 747.18534916 751.31767447 741.24534916 751.99767447 735.12534916 C752.98767447 735.12534916 753.97767447 735.12534916 754.99767447 735.12534916 C758.79089225 750.44552973 758.1462112 766.45815116 757.99767447 782.12534916 C757.33767447 782.12534916 756.67767447 782.12534916 755.99767447 782.12534916 C756.09048697 783.14628666 756.09048697 783.14628666 756.18517447 784.18784916 C755.94472358 787.95491299 754.55183394 790.70619832 752.99767447 794.12534916 C752.62458815 795.44810972 752.26721031 796.77766993 751.99767447 798.12534916 C751.33767447 798.12534916 750.67767447 798.12534916 749.99767447 798.12534916 C750.01829947 798.92972416 750.03892447 799.73409916 750.06017447 800.56284916 C749.99767447 803.12534916 749.99767447 803.12534916 748.99767447 804.12534916 C748.99767447 806.11892631 748.99979468 808.11252583 749.01256704 810.10606205 C748.94143167 822.13960161 745.27907139 830.08058807 738.99767447 840.12534916 C738.44208853 841.09214604 737.88650259 842.05894291 737.31408072 843.05503666 C733.93775165 848.92930024 730.31460815 854.89607383 725.99767447 860.12534916 C725.33767447 860.12534916 724.67767447 860.12534916 723.99767447 860.12534916 C723.91259634 860.71702885 723.82751822 861.30870854 723.73986197 861.91831791 C721.36118133 868.99176296 709.21373349 874.66001862 702.99767447 878.12534916 C700.67345572 878.82066166 700.67345572 878.82066166 698.99767447 879.12534916 C698.99767447 879.78534916 698.99767447 880.44534916 698.99767447 881.12534916 C696.0003036 882.56837689 692.99931711 884.00373101 689.99767447 885.43784916 C689.15849478 885.84197026 688.31931509 886.24609135 687.45470572 886.66245854 C682.37762422 889.08292762 677.3224189 891.31136083 671.99767447 893.12534916 C671.10266226 893.43979985 670.20765005 893.75425053 669.28551626 894.07823002 C660.43649231 897.01111734 651.51584536 898.65900813 642.33092642 900.10044682 C639.80019618 900.50193216 637.27539042 900.93212252 634.74962759 901.36363041 C626.31489372 902.74254333 619.34508457 903.666236 610.99767447 901.12534916 C610.37267447 899.31284916 610.37267447 899.31284916 609.99767447 897.12534916 C610.65767447 896.13534916 611.31767447 895.14534916 611.99767447 894.12534916 C611.34114386 894.12756978 610.68461325 894.12979039 610.00818777 894.13207829 C603.1457208 894.15428332 596.28326411 894.16931905 589.42077017 894.1802808 C586.86314876 894.1852948 584.3055302 894.19210764 581.74791861 894.20078862 C578.06163214 894.21298299 574.37538374 894.21860695 570.68908072 894.22300541 C569.5543482 894.2281667 568.41961569 894.23332798 567.25049734 894.23864567 C566.17005651 894.2387212 565.08961569 894.23879673 563.97643423 894.23887455 C562.56745619 894.24220547 562.56745619 894.24220547 561.13001394 894.24560368 C558.59375251 894.14823336 556.16717303 893.92942649 553.65207815 893.62634099 C549.26641809 893.11319218 544.96048663 892.98365463 540.54845572 892.99595463 C539.75468527 892.99420231 538.96091482 892.99244999 538.14309072 892.99064457 C535.53209591 892.98626757 532.92116993 892.98915848 530.31017447 892.99253666 C528.44827655 892.99186033 526.58637872 892.99088759 524.72448111 892.98963749 C520.80739905 892.98816431 516.8903398 892.99029512 512.9732604 892.99497807 C508.08884647 893.00054821 503.20448907 892.99747731 498.32007742 892.99140561 C494.45645157 892.98767882 490.59283767 892.98899388 486.72921133 892.9915334 C484.93772769 892.99217667 483.14624277 892.99147183 481.35476065 892.98905385 C468.93528901 892.97601764 456.53131582 893.22798916 444.11726308 893.56105745 C425.04747522 894.06932151 406.00082673 894.23186835 386.925138 894.17208683 C376.83313716 894.14110294 366.7410819 894.13661471 356.64904165 894.12925541 C355.50815439 894.1282946 354.36726712 894.12733378 353.19180751 894.12634385 C316.93546473 894.09827608 280.67929413 894.2271761 244.42315972 894.33559048 C239.66865828 894.34975934 234.91415619 894.36370508 230.15965414 894.3776685 C209.7653128 894.43765058 189.37097633 894.49915242 168.97664258 894.56165826 C153.92001583 894.6077999 138.86338717 894.65325899 123.8067565 894.69810307 C122.80392603 894.70109007 121.80109556 894.70407706 120.76787628 894.70715457 C115.73279544 894.72214826 110.69771456 894.73713039 105.66263366 894.75210679 C64.44097513 894.87473167 23.21932278 894.99933966 -18.00232553 895.12534916 C-18.99232553 897.60034916 -18.99232553 897.60034916 -20.00232553 900.12534916 C-22.64232553 900.12534916 -25.28232553 900.12534916 -28.00232553 900.12534916 C-28.00232553 899.46534916 -28.00232553 898.80534916 -28.00232553 898.12534916 C-30.64232553 898.12534916 -33.28232553 898.12534916 -36.00232553 898.12534916 C-36.00232553 897.46534916 -36.00232553 896.80534916 -36.00232553 896.12534916 C-35.34232553 896.12534916 -34.68232553 896.12534916 -34.00232553 896.12534916 C-34.00232553 895.46534916 -34.00232553 894.80534916 -34.00232553 894.12534916 C-32.68232553 894.12534916 -31.36232553 894.12534916 -30.00232553 894.12534916 C-30.64295985 891.03585097 -30.64295985 891.03585097 -32.85779428 890.17613041 C-39.30416269 888.07022273 -39.30416269 888.07022273 -46.00232553 888.12534916 C-46.96138803 889.08441166 -46.96138803 889.08441166 -47.93982553 890.06284916 C-50.87692926 892.99995289 -52.87802641 892.91216472 -57.00232553 893.12534916 C-60.08970768 892.51084784 -62.98354654 891.508097 -65.93982553 890.43784916 C-66.69972788 890.1806812 -67.45963022 889.92351323 -68.24255991 889.65855229 C-73.39464377 887.86786217 -78.16874463 885.64936922 -83.00232553 883.12534916 C-83.00232553 882.46534916 -83.00232553 881.80534916 -83.00232553 881.12534916 C-84.06000132 880.74636479 -84.06000132 880.74636479 -85.13904428 880.35972416 C-90.52546581 878.03761066 -95.19802531 874.45716257 -100.00232553 871.12534916 C-100.78865366 870.58136479 -101.57498178 870.03738041 -102.38513803 869.47691166 C-106.61910915 866.43424801 -109.92789578 863.35269008 -113.00232553 859.12534916 C-113.00232553 858.46534916 -113.00232553 857.80534916 -113.00232553 857.12534916 C-113.66232553 857.12534916 -114.32232553 857.12534916 -115.00232553 857.12534916 C-117.21266798 854.73244156 -118.77370023 852.13648822 -120.00232553 849.12534916 C-119.89295053 846.97691166 -119.89295053 846.97691166 -119.43982553 844.81284916 C-118.30846182 838.54186172 -121.64482162 834.20853789 -125.00232553 829.12534916 C-126.18171196 827.47369203 -127.3690929 825.82771107 -128.56482553 824.18784916 C-131.78723866 819.71896414 -133.82641965 815.18820872 -135.81482553 810.06675541 C-136.93672682 807.28783546 -138.21991576 804.7059312 -139.62732553 802.06284916 C-141.9293012 797.60367618 -143.24989949 793.14558037 -144.42420053 788.27769291 C-144.80082141 786.16036259 -144.80082141 786.16036259 -146.00232553 785.12534916 C-146.12607553 783.94972416 -146.24982553 782.77409916 -146.37732553 781.56284916 C-146.70671949 778.56111395 -147.30698519 776.14320035 -148.50232553 773.37534916 C-150.35526727 768.86892289 -150.5376225 764.39434253 -150.79138803 759.56675541 C-150.73382021 757.17931617 -150.73382021 757.17931617 -152.00232553 756.12534916 C-152.09950847 754.7684264 -152.12755491 753.40647771 -152.1276747 752.04607928 C-152.13017822 751.1596698 -152.13268174 750.27326032 -152.13526112 749.35998994 C-152.13291995 748.37302167 -152.13057879 747.38605339 -152.12816668 746.36917698 C-152.12962012 745.32659617 -152.13107356 744.28401536 -152.13257104 743.20984119 C-152.13625944 739.66925253 -152.13273157 736.12870616 -152.12930918 732.58811772 C-152.13045988 730.0429653 -152.13204705 727.49781305 -152.13403642 724.95266116 C-152.13735694 719.39476066 -152.13753076 713.83687342 -152.13498926 708.27897274 C-152.13122028 700.01443708 -152.13313346 691.74990965 -152.13619757 683.48537405 C-152.14147473 668.72837856 -152.14100239 653.97138739 -152.13811866 639.21439148 C-152.13560738 626.30063127 -152.1349444 613.38687264 -152.1361413 600.47311223 C-152.13621769 599.61795013 -152.13629407 598.76278803 -152.13637277 597.88171193 C-152.13668409 594.41070799 -152.13700248 590.93970406 -152.13733253 587.46870012 C-152.14039451 554.87924973 -152.13761336 522.28980209 -152.13223564 489.70035212 C-152.1274897 460.71913221 -152.12791432 431.73791669 -152.13269663 402.75669682 C-152.13804624 370.22849741 -152.1401774 337.70030045 -152.13708436 305.17210066 C-152.13676363 301.70726248 -152.13645079 298.24242429 -152.1361413 294.7775861 C-152.13606222 293.92439618 -152.13598315 293.07120626 -152.13590167 292.19216209 C-152.13476212 279.28357351 -152.13609833 266.37498669 -152.13862085 253.46639836 C-152.14147346 238.79512241 -152.14077954 224.12385148 -152.13534011 209.45257616 C-152.13239327 201.23217322 -152.13222728 193.01178112 -152.13598628 184.79137846 C-152.13847763 178.67034508 -152.1357961 172.54932592 -152.13101171 166.42829341 C-152.12988631 163.9390893 -152.13048139 161.44988375 -152.1328875 158.96068054 C-152.13588821 155.60093943 -152.13285042 152.24125917 -152.12816668 148.88152134 C-152.13050784 147.89455307 -152.13284901 146.90758479 -152.13526112 145.89070839 C-152.1327576 145.00429891 -152.13025408 144.11788942 -152.1276747 143.20461905 C-152.12760694 142.43507841 -152.12753918 141.66553777 -152.12746937 140.87267771 C-152.00232553 139.12534916 -152.00232553 139.12534916 -151.00232553 138.12534916 C-150.76804776 136.10940335 -150.58896429 134.08687516 -150.43982553 132.06284916 C-150.35603647 130.9581226 -150.27224741 129.85339604 -150.18591928 128.71519291 C-150.12533335 127.86054448 -150.06474741 127.00589604 -150.00232553 126.12534916 C-149.34232553 126.12534916 -148.68232553 126.12534916 -148.00232553 126.12534916 C-148.02552866 125.5568726 -148.04873178 124.98839604 -148.07263803 124.40269291 C-148.19424241 119.19976269 -147.67956045 115.05222673 -146.00232553 110.12534916 C-145.34232553 110.12534916 -144.68232553 110.12534916 -144.00232553 110.12534916 C-144.00232553 108.14534916 -144.00232553 106.16534916 -144.00232553 104.12534916 C-143.34232553 104.12534916 -142.68232553 104.12534916 -142.00232553 104.12534916 C-141.89920053 103.48597416 -141.79607553 102.84659916 -141.68982553 102.18784916 C-140.7632948 98.06057591 -139.38571924 94.11891968 -138.00232553 90.12534916 C-137.34232553 90.12534916 -136.68232553 90.12534916 -136.00232553 90.12534916 C-136.00232553 88.80534916 -136.00232553 87.48534916 -136.00232553 86.12534916 C-135.34232553 86.12534916 -134.68232553 86.12534916 -134.00232553 86.12534916 C-133.85795053 85.50659916 -133.71357553 84.88784916 -133.56482553 84.25034916 C-133.00232553 82.12534916 -133.00232553 82.12534916 -132.00232553 80.12534916 C-131.34232553 80.12534916 -130.68232553 80.12534916 -130.00232553 80.12534916 C-130.00232553 78.80534916 -130.00232553 77.48534916 -130.00232553 76.12534916 C-129.34232553 76.12534916 -128.68232553 76.12534916 -128.00232553 76.12534916 C-128.00232553 74.80534916 -128.00232553 73.48534916 -128.00232553 72.12534916 C-127.34232553 72.12534916 -126.68232553 72.12534916 -126.00232553 72.12534916 C-126.00232553 71.46534916 -126.00232553 70.80534916 -126.00232553 70.12534916 C-125.34232553 70.12534916 -124.68232553 70.12534916 -124.00232553 70.12534916 C-124.00232553 69.46534916 -124.00232553 68.80534916 -124.00232553 68.12534916 C-123.34232553 68.12534916 -122.68232553 68.12534916 -122.00232553 68.12534916 C-122.00232553 66.80534916 -122.00232553 65.48534916 -122.00232553 64.12534916 C-121.34232553 64.12534916 -120.68232553 64.12534916 -120.00232553 64.12534916 C-120.00232553 63.46534916 -120.00232553 62.80534916 -120.00232553 62.12534916 C-119.34232553 62.12534916 -118.68232553 62.12534916 -118.00232553 62.12534916 C-118.00232553 61.46534916 -118.00232553 60.80534916 -118.00232553 60.12534916 C-117.34232553 60.12534916 -116.68232553 60.12534916 -116.00232553 60.12534916 C-116.00232553 59.46534916 -116.00232553 58.80534916 -116.00232553 58.12534916 C-115.34232553 58.12534916 -114.68232553 58.12534916 -114.00232553 58.12534916 C-113.85795053 57.50659916 -113.71357553 56.88784916 -113.56482553 56.25034916 C-113.00232553 54.12534916 -113.00232553 54.12534916 -112.00232553 52.12534916 C-111.34232553 52.12534916 -110.68232553 52.12534916 -110.00232553 52.12534916 C-110.00232553 51.46534916 -110.00232553 50.80534916 -110.00232553 50.12534916 C-109.34232553 50.12534916 -108.68232553 50.12534916 -108.00232553 50.12534916 C-108.00232553 49.46534916 -108.00232553 48.80534916 -108.00232553 48.12534916 C-107.34232553 48.12534916 -106.68232553 48.12534916 -106.00232553 48.12534916 C-106.00232553 47.46534916 -106.00232553 46.80534916 -106.00232553 46.12534916 C-105.34232553 46.12534916 -104.68232553 46.12534916 -104.00232553 46.12534916 C-104.00232553 45.46534916 -104.00232553 44.80534916 -104.00232553 44.12534916 C-101.00232553 42.12534916 -101.00232553 42.12534916 -98.00232553 42.12534916 C-98.00232553 41.46534916 -98.00232553 40.80534916 -98.00232553 40.12534916 C-97.34232553 40.12534916 -96.68232553 40.12534916 -96.00232553 40.12534916 C-96.00232553 39.46534916 -96.00232553 38.80534916 -96.00232553 38.12534916 C-95.34232553 38.12534916 -94.68232553 38.12534916 -94.00232553 38.12534916 C-94.00232553 37.46534916 -94.00232553 36.80534916 -94.00232553 36.12534916 C-93.34232553 36.12534916 -92.68232553 36.12534916 -92.00232553 36.12534916 C-92.00232553 35.46534916 -92.00232553 34.80534916 -92.00232553 34.12534916 C-89.00232553 32.12534916 -89.00232553 32.12534916 -86.00232553 32.12534916 C-86.00232553 31.46534916 -86.00232553 30.80534916 -86.00232553 30.12534916 C-85.34232553 30.12534916 -84.68232553 30.12534916 -84.00232553 30.12534916 C-84.00232553 29.46534916 -84.00232553 28.80534916 -84.00232553 28.12534916 C-83.34232553 28.12534916 -82.68232553 28.12534916 -82.00232553 28.12534916 C-82.00232553 27.46534916 -82.00232553 26.80534916 -82.00232553 26.12534916 C-80.68232553 26.12534916 -79.36232553 26.12534916 -78.00232553 26.12534916 C-78.00232553 25.46534916 -78.00232553 24.80534916 -78.00232553 24.12534916 C-71.37732553 20.12534916 -71.37732553 20.12534916 -68.00232553 20.12534916 C-68.00232553 19.46534916 -68.00232553 18.80534916 -68.00232553 18.12534916 C-66.68232553 18.12534916 -65.36232553 18.12534916 -64.00232553 18.12534916 C-64.00232553 17.46534916 -64.00232553 16.80534916 -64.00232553 16.12534916 C-62.68232553 16.12534916 -61.36232553 16.12534916 -60.00232553 16.12534916 C-60.00232553 15.46534916 -60.00232553 14.80534916 -60.00232553 14.12534916 C-58.68232553 14.12534916 -57.36232553 14.12534916 -56.00232553 14.12534916 C-56.00232553 13.46534916 -56.00232553 12.80534916 -56.00232553 12.12534916 C-51.8249508 10.53396831 -48.47071769 9.91256859 -44.00232553 10.12534916 C-44.00232553 9.46534916 -44.00232553 8.80534916 -44.00232553 8.12534916 C-42.02232553 8.12534916 -40.04232553 8.12534916 -38.00232553 8.12534916 C-38.00232553 7.46534916 -38.00232553 6.80534916 -38.00232553 6.12534916 C-32.98920474 4.49063586 -28.30053712 3.76071528 -23.04138803 3.37144291 C-21.010371 3.33915692 -21.010371 3.33915692 -20.00232553 2.12534916 C-16.79245623 1.85536016 -13.59001694 1.67923479 -10.37341928 1.51988041 C-6.46587838 1.30153998 -3.80182777 0.0003414 0 0 Z M741.99767447 779.12534916 C739.84573077 782.35326471 739.79681004 783.40935726 739.99767447 787.12534916 C740.98767447 786.46534916 741.97767447 785.80534916 742.99767447 785.12534916 C743.24789016 782.04169046 743.24789016 782.04169046 742.99767447 779.12534916 C742.66767447 779.12534916 742.33767447 779.12534916 741.99767447 779.12534916 Z M622.99767447 890.12534916 C622.99767447 891.11534916 622.99767447 892.10534916 622.99767447 893.12534916 C625.92361342 893.98172154 628.07941734 894.51208021 630.95470572 893.30113041 C632.67279178 892.30387068 634.33968833 891.21962001 635.99767447 890.12534916 C635.99767447 889.46534916 635.99767447 888.80534916 635.99767447 888.12534916 C631.34661824 887.83465815 627.45303212 888.91711658 622.99767447 890.12534916 Z " fill="#FDFDFD" transform="translate(215.00232553482056,66.8746508359909)"/>
<path d="M0 0 C0.86920847 -0.00250352 1.73841695 -0.00500704 2.63396508 -0.00758642 C4.08553927 -0.00407467 4.08553927 -0.00407467 5.5664382 -0.00049198 C6.58875853 -0.00194542 7.61107885 -0.00339886 8.66437858 -0.00489634 C12.13604668 -0.00858464 15.60767164 -0.00505692 19.0793395 -0.00163448 C21.57499432 -0.00278518 24.07064897 -0.00437236 26.56630325 -0.00636172 C32.01605527 -0.00968221 37.46579375 -0.00985609 42.91554594 -0.00731456 C51.0192666 -0.00354554 59.12297886 -0.00545878 67.22669946 -0.00852287 C81.69655627 -0.0138 96.16640868 -0.0133277 110.63626592 -0.01044396 C123.29875353 -0.00793267 135.96123952 -0.0072697 148.62372732 -0.0084666 C149.46225326 -0.00854299 150.3007792 -0.00861937 151.16471501 -0.00869807 C154.56819558 -0.00900939 157.97167614 -0.00932779 161.37515671 -0.00965784 C193.33055904 -0.01271981 225.28595856 -0.00993867 257.24136046 -0.00456094 C285.65866846 0.00018499 314.07597198 -0.00023962 342.49327993 -0.00502193 C374.3886268 -0.01037156 406.28397118 -0.01250269 438.17931843 -0.00940967 C441.57675282 -0.00908893 444.97418721 -0.00877609 448.37162161 -0.0084666 C449.62650978 -0.00834799 449.62650978 -0.00834799 450.90674924 -0.00822697 C463.56415895 -0.00708743 476.22156688 -0.00842362 488.87897635 -0.01094615 C503.26478947 -0.01379878 517.65059749 -0.01310481 532.03640997 -0.00766541 C540.09684447 -0.00471859 548.15726791 -0.00455255 556.21770212 -0.00831159 C562.21965449 -0.01080296 568.22159234 -0.00812135 574.22354382 -0.00333701 C576.66429603 -0.00221162 579.1050497 -0.00280666 581.54580098 -0.0052128 C584.8401927 -0.00821359 588.13452237 -0.00517563 591.42891073 -0.00049198 C592.39662686 -0.00283314 593.36434299 -0.00517431 594.36138386 -0.00758642 C595.23059233 -0.0050829 596.0998008 -0.00257938 596.99534893 0 C597.74991543 0.00006776 598.50448193 0.00013552 599.28191409 0.00020533 C600.99767447 0.12534916 600.99767447 0.12534916 601.99767447 1.12534916 C604.83474534 1.33637096 607.65665092 1.5014273 610.49767447 1.62534916 C618.86253933 1.99021403 618.86253933 1.99021403 619.99767447 3.12534916 C621.02892447 3.26972416 622.06017447 3.41409916 623.12267447 3.56284916 C626.94112839 4.11714086 630.31986552 4.99948928 633.99767447 6.12534916 C633.99767447 6.78534916 633.99767447 7.44534916 633.99767447 8.12534916 C635.97767447 8.12534916 637.95767447 8.12534916 639.99767447 8.12534916 C639.99767447 8.78534916 639.99767447 9.44534916 639.99767447 10.12534916 C641.04954947 10.08409916 642.10142447 10.04284916 643.18517447 10.00034916 C646.7377762 10.11682791 648.84634087 10.59742985 651.99767447 12.12534916 C651.99767447 12.78534916 651.99767447 13.44534916 651.99767447 14.12534916 C653.31767447 14.12534916 654.63767447 14.12534916 655.99767447 14.12534916 C655.99767447 14.78534916 655.99767447 15.44534916 655.99767447 16.12534916 C656.86392447 16.34191166 656.86392447 16.34191166 657.74767447 16.56284916 C659.8310078 17.0836825 661.91434113 17.60451583 663.99767447 18.12534916 C663.99767447 18.78534916 663.99767447 19.44534916 663.99767447 20.12534916 C665.31767447 20.12534916 666.63767447 20.12534916 667.99767447 20.12534916 C667.99767447 20.78534916 667.99767447 21.44534916 667.99767447 22.12534916 C668.53392447 22.22847416 669.07017447 22.33159916 669.62267447 22.43784916 C672.6226949 23.30627613 675.23562796 24.68155213 677.99767447 26.12534916 C677.99767447 26.78534916 677.99767447 27.44534916 677.99767447 28.12534916 C678.92579947 28.34191166 678.92579947 28.34191166 679.87267447 28.56284916 C681.99767447 29.12534916 681.99767447 29.12534916 683.99767447 30.12534916 C683.99767447 30.78534916 683.99767447 31.44534916 683.99767447 32.12534916 C685.01667837 32.44052495 685.01667837 32.44052495 686.05626822 32.76206791 C689.96149411 34.57205973 692.84137609 37.11500053 696.06017447 39.93784916 C696.67183462 40.45927495 697.28349478 40.98070073 697.91369009 41.51792729 C701.34973398 44.49335556 704.20598409 47.52110857 706.99767447 51.12534916 C708.17136587 52.25070073 708.17136587 52.25070073 709.36876822 53.39878666 C713.36665562 57.545184 716.40451803 62.30303678 719.62462759 67.06284916 C720.38356314 68.1649976 720.38356314 68.1649976 721.15783072 69.28941166 C721.60779409 69.95408452 722.05775747 70.61875737 722.52135611 71.30357182 C724.14455532 73.30660019 725.88385839 74.6636588 727.99767447 76.12534916 C726.9183909 70.36917016 724.77413637 67.43413875 720.81798697 63.18003666 C717.4496447 59.37800227 713.99767447 55.32432497 713.99767447 50.12534916 C713.33767447 50.12534916 712.67767447 50.12534916 711.99767447 50.12534916 C711.99767447 48.14534916 711.99767447 46.16534916 711.99767447 44.12534916 C715.82767469 44.67249205 717.50487153 46.23048124 719.99767447 49.12534916 C720.67829947 50.27003666 720.67829947 50.27003666 721.37267447 51.43784916 C722.76089464 53.73375176 724.07660399 55.36099707 725.87267447 57.31284916 C729.90588642 61.90062776 733.99767447 67.87793832 733.99767447 74.12534916 C734.98767447 74.45534916 735.97767447 74.78534916 736.99767447 75.12534916 C736.99767447 75.78534916 736.99767447 76.44534916 736.99767447 77.12534916 C737.65767447 77.12534916 738.31767447 77.12534916 738.99767447 77.12534916 C740.9715526 81.88587878 741.00469826 85.09023017 739.99767447 90.12534916 C739.00767447 89.79534916 738.01767447 89.46534916 736.99767447 89.12534916 C735.81017447 86.06284916 735.81017447 86.06284916 734.99767447 83.12534916 C734.33767447 83.12534916 733.67767447 83.12534916 732.99767447 83.12534916 C732.99767447 82.46534916 732.99767447 81.80534916 732.99767447 81.12534916 C731.67767447 80.79534916 730.35767447 80.46534916 728.99767447 80.12534916 C730.46394469 84.2309058 731.95378264 88.14839918 733.99767447 92.00034916 C735.96139808 95.78593042 737.11774156 99.61181831 738.18908072 103.73081791 C738.92421092 106.20482995 738.92421092 106.20482995 740.45470572 108.48472416 C746.59759319 118.99761513 746.35287321 132.64226359 746.60875845 144.42590153 C746.62758294 145.1865322 746.64640743 145.94716287 746.66580236 146.73084296 C747.22713149 169.61253402 747.12526222 192.5041229 747.09908104 215.39088869 C747.09327986 221.36654702 747.09236073 227.34220508 747.09129736 233.31786565 C747.08898516 245.51050677 747.08218808 257.7031412 747.07283926 269.89577878 C747.06014365 286.53360302 747.05417332 303.1714251 747.0499059 319.8092534 C747.04790161 327.58879812 747.04557397 335.36834275 747.04316092 343.14788735 C747.0429199 343.92606825 747.04267889 344.70424915 747.04243057 345.50601129 C747.03664243 363.9516348 747.02768321 382.39725654 747.01818228 400.84287846 C747.01776863 401.64822487 747.01735499 402.45357128 747.01692881 403.28332212 C747.01104948 414.72294719 747.00503065 426.16257219 746.99897647 437.60219717 C746.99159562 451.55123931 746.98428951 465.50028149 746.97716665 479.44932377 C746.97675206 480.25892804 746.97633747 481.06853231 746.97591032 481.90267004 C746.96646388 500.3829123 746.95791765 518.86315439 746.95218801 537.34339821 C746.95182652 538.50753076 746.95182652 538.50753076 746.95145773 539.69518114 C746.94907289 547.44111983 746.94684482 555.18705855 746.94485148 562.93299735 C746.94053713 579.56216951 746.93346636 596.19133401 746.92080364 612.82050204 C746.91163358 624.91667557 746.90586705 637.01284653 746.90368629 649.10902338 C746.9023944 655.66163456 746.89930616 662.21423634 746.89192724 668.76684391 C746.88520556 674.75795967 746.88303642 680.74905876 746.88456285 686.74017794 C746.88429026 688.91279787 746.88230186 691.08541837 746.87847006 693.25803494 C746.87352002 696.19990603 746.8746789 699.14171242 746.87741995 702.0835849 C746.87450709 702.93613194 746.87159423 703.78867897 746.8685931 704.66706076 C746.87866215 708.63516308 747.06885186 712.24428054 747.99767447 716.12534916 C748.08573107 717.83198583 748.12825519 719.54144375 748.13048697 721.25034916 C748.13177603 722.20425541 748.13306509 723.15816166 748.13439322 724.14097416 C748.13052603 725.12581791 748.12665884 726.11066166 748.12267447 727.12534916 C748.12654165 728.11019291 748.13040884 729.09503666 748.13439322 730.10972416 C748.13310415 731.06363041 748.13181509 732.01753666 748.13048697 733.00034916 C748.12879507 734.29585698 748.12879507 734.29585698 748.127069 735.61753666 C747.99343239 738.2075654 747.53206254 740.59126465 746.99767447 743.12534916 C746.93234011 745.06185935 746.91183144 747.00037778 746.93517447 748.93784916 C746.94870962 750.40157963 746.94870962 750.40157963 746.96251822 751.89488041 C746.97411978 752.6309351 746.98572134 753.36698979 746.99767447 754.12534916 C747.98767447 753.79534916 748.97767447 753.46534916 749.99767447 753.12534916 C750.65767447 747.18534916 751.31767447 741.24534916 751.99767447 735.12534916 C752.98767447 735.12534916 753.97767447 735.12534916 754.99767447 735.12534916 C758.79089225 750.44552973 758.1462112 766.45815116 757.99767447 782.12534916 C757.33767447 782.12534916 756.67767447 782.12534916 755.99767447 782.12534916 C756.09048697 783.14628666 756.09048697 783.14628666 756.18517447 784.18784916 C755.94472358 787.95491299 754.55183394 790.70619832 752.99767447 794.12534916 C752.62458815 795.44810972 752.26721031 796.77766993 751.99767447 798.12534916 C751.33767447 798.12534916 750.67767447 798.12534916 749.99767447 798.12534916 C750.01829947 798.92972416 750.03892447 799.73409916 750.06017447 800.56284916 C749.99767447 803.12534916 749.99767447 803.12534916 748.99767447 804.12534916 C748.99767447 806.11892631 748.99979468 808.11252583 749.01256704 810.10606205 C748.94143167 822.13960161 745.27907139 830.08058807 738.99767447 840.12534916 C738.44208853 841.09214604 737.88650259 842.05894291 737.31408072 843.05503666 C733.93775165 848.92930024 730.31460815 854.89607383 725.99767447 860.12534916 C725.33767447 860.12534916 724.67767447 860.12534916 723.99767447 860.12534916 C723.91259634 860.71702885 723.82751822 861.30870854 723.73986197 861.91831791 C721.36118133 868.99176296 709.21373349 874.66001862 702.99767447 878.12534916 C700.67345572 878.82066166 700.67345572 878.82066166 698.99767447 879.12534916 C698.99767447 879.78534916 698.99767447 880.44534916 698.99767447 881.12534916 C696.0003036 882.56837689 692.99931711 884.00373101 689.99767447 885.43784916 C689.15849478 885.84197026 688.31931509 886.24609135 687.45470572 886.66245854 C682.37762422 889.08292762 677.3224189 891.31136083 671.99767447 893.12534916 C671.10266226 893.43979985 670.20765005 893.75425053 669.28551626 894.07823002 C660.43649231 897.01111734 651.51584536 898.65900813 642.33092642 900.10044682 C639.80019618 900.50193216 637.27539042 900.93212252 634.74962759 901.36363041 C626.31489372 902.74254333 619.34508457 903.666236 610.99767447 901.12534916 C610.37267447 899.31284916 610.37267447 899.31284916 609.99767447 897.12534916 C610.65767447 896.13534916 611.31767447 895.14534916 611.99767447 894.12534916 C611.34114386 894.12756978 610.68461325 894.12979039 610.00818777 894.13207829 C603.1457208 894.15428332 596.28326411 894.16931905 589.42077017 894.1802808 C586.86314876 894.1852948 584.3055302 894.19210764 581.74791861 894.20078862 C578.06163214 894.21298299 574.37538374 894.21860695 570.68908072 894.22300541 C569.5543482 894.2281667 568.41961569 894.23332798 567.25049734 894.23864567 C566.17005651 894.2387212 565.08961569 894.23879673 563.97643423 894.23887455 C562.56745619 894.24220547 562.56745619 894.24220547 561.13001394 894.24560368 C558.59375251 894.14823336 556.16717303 893.92942649 553.65207815 893.62634099 C549.26641809 893.11319218 544.96048663 892.98365463 540.54845572 892.99595463 C539.75468527 892.99420231 538.96091482 892.99244999 538.14309072 892.99064457 C535.53209591 892.98626757 532.92116993 892.98915848 530.31017447 892.99253666 C528.44827655 892.99186033 526.58637872 892.99088759 524.72448111 892.98963749 C520.80739905 892.98816431 516.8903398 892.99029512 512.9732604 892.99497807 C508.08884647 893.00054821 503.20448907 892.99747731 498.32007742 892.99140561 C494.45645157 892.98767882 490.59283767 892.98899388 486.72921133 892.9915334 C484.93772769 892.99217667 483.14624277 892.99147183 481.35476065 892.98905385 C468.93528901 892.97601764 456.53131582 893.22798916 444.11726308 893.56105745 C425.04747522 894.06932151 406.00082673 894.23186835 386.925138 894.17208683 C376.83313716 894.14110294 366.7410819 894.13661471 356.64904165 894.12925541 C355.50815439 894.1282946 354.36726712 894.12733378 353.19180751 894.12634385 C316.93546473 894.09827608 280.67929413 894.2271761 244.42315972 894.33559048 C239.66865828 894.34975934 234.91415619 894.36370508 230.15965414 894.3776685 C209.7653128 894.43765058 189.37097633 894.49915242 168.97664258 894.56165826 C153.92001583 894.6077999 138.86338717 894.65325899 123.8067565 894.69810307 C122.80392603 894.70109007 121.80109556 894.70407706 120.76787628 894.70715457 C115.73279544 894.72214826 110.69771456 894.73713039 105.66263366 894.75210679 C64.44097513 894.87473167 23.21932278 894.99933966 -18.00232553 895.12534916 C-18.99232553 897.60034916 -18.99232553 897.60034916 -20.00232553 900.12534916 C-22.64232553 900.12534916 -25.28232553 900.12534916 -28.00232553 900.12534916 C-28.00232553 899.46534916 -28.00232553 898.80534916 -28.00232553 898.12534916 C-30.64232553 898.12534916 -33.28232553 898.12534916 -36.00232553 898.12534916 C-36.00232553 897.46534916 -36.00232553 896.80534916 -36.00232553 896.12534916 C-35.34232553 896.12534916 -34.68232553 896.12534916 -34.00232553 896.12534916 C-34.00232553 895.46534916 -34.00232553 894.80534916 -34.00232553 894.12534916 C-32.68232553 894.12534916 -31.36232553 894.12534916 -30.00232553 894.12534916 C-30.64295985 891.03585097 -30.64295985 891.03585097 -32.85779428 890.17613041 C-39.30416269 888.07022273 -39.30416269 888.07022273 -46.00232553 888.12534916 C-46.96138803 889.08441166 -46.96138803 889.08441166 -47.93982553 890.06284916 C-50.87692926 892.99995289 -52.87802641 892.91216472 -57.00232553 893.12534916 C-60.08970768 892.51084784 -62.98354654 891.508097 -65.93982553 890.43784916 C-66.69972788 890.1806812 -67.45963022 889.92351323 -68.24255991 889.65855229 C-73.39464377 887.86786217 -78.16874463 885.64936922 -83.00232553 883.12534916 C-83.00232553 882.46534916 -83.00232553 881.80534916 -83.00232553 881.12534916 C-84.06000132 880.74636479 -84.06000132 880.74636479 -85.13904428 880.35972416 C-90.52546581 878.03761066 -95.19802531 874.45716257 -100.00232553 871.12534916 C-100.78865366 870.58136479 -101.57498178 870.03738041 -102.38513803 869.47691166 C-106.61910915 866.43424801 -109.92789578 863.35269008 -113.00232553 859.12534916 C-113.00232553 858.46534916 -113.00232553 857.80534916 -113.00232553 857.12534916 C-113.66232553 857.12534916 -114.32232553 857.12534916 -115.00232553 857.12534916 C-117.21266798 854.73244156 -118.77370023 852.13648822 -120.00232553 849.12534916 C-119.89295053 846.97691166 -119.89295053 846.97691166 -119.43982553 844.81284916 C-118.30846182 838.54186172 -121.64482162 834.20853789 -125.00232553 829.12534916 C-126.18171196 827.47369203 -127.3690929 825.82771107 -128.56482553 824.18784916 C-131.78723866 819.71896414 -133.82641965 815.18820872 -135.81482553 810.06675541 C-136.93672682 807.28783546 -138.21991576 804.7059312 -139.62732553 802.06284916 C-141.9293012 797.60367618 -143.24989949 793.14558037 -144.42420053 788.27769291 C-144.80082141 786.16036259 -144.80082141 786.16036259 -146.00232553 785.12534916 C-146.12607553 783.94972416 -146.24982553 782.77409916 -146.37732553 781.56284916 C-146.70671949 778.56111395 -147.30698519 776.14320035 -148.50232553 773.37534916 C-150.35526727 768.86892289 -150.5376225 764.39434253 -150.79138803 759.56675541 C-150.73382021 757.17931617 -150.73382021 757.17931617 -152.00232553 756.12534916 C-152.09950847 754.7684264 -152.12755491 753.40647771 -152.1276747 752.04607928 C-152.13017822 751.1596698 -152.13268174 750.27326032 -152.13526112 749.35998994 C-152.13291995 748.37302167 -152.13057879 747.38605339 -152.12816668 746.36917698 C-152.12962012 745.32659617 -152.13107356 744.28401536 -152.13257104 743.20984119 C-152.13625944 739.66925253 -152.13273157 736.12870616 -152.12930918 732.58811772 C-152.13045988 730.0429653 -152.13204705 727.49781305 -152.13403642 724.95266116 C-152.13735694 719.39476066 -152.13753076 713.83687342 -152.13498926 708.27897274 C-152.13122028 700.01443708 -152.13313346 691.74990965 -152.13619757 683.48537405 C-152.14147473 668.72837856 -152.14100239 653.97138739 -152.13811866 639.21439148 C-152.13560738 626.30063127 -152.1349444 613.38687264 -152.1361413 600.47311223 C-152.13621769 599.61795013 -152.13629407 598.76278803 -152.13637277 597.88171193 C-152.13668409 594.41070799 -152.13700248 590.93970406 -152.13733253 587.46870012 C-152.14039451 554.87924973 -152.13761336 522.28980209 -152.13223564 489.70035212 C-152.1274897 460.71913221 -152.12791432 431.73791669 -152.13269663 402.75669682 C-152.13804624 370.22849741 -152.1401774 337.70030045 -152.13708436 305.17210066 C-152.13676363 301.70726248 -152.13645079 298.24242429 -152.1361413 294.7775861 C-152.13606222 293.92439618 -152.13598315 293.07120626 -152.13590167 292.19216209 C-152.13476212 279.28357351 -152.13609833 266.37498669 -152.13862085 253.46639836 C-152.14147346 238.79512241 -152.14077954 224.12385148 -152.13534011 209.45257616 C-152.13239327 201.23217322 -152.13222728 193.01178112 -152.13598628 184.79137846 C-152.13847763 178.67034508 -152.1357961 172.54932592 -152.13101171 166.42829341 C-152.12988631 163.9390893 -152.13048139 161.44988375 -152.1328875 158.96068054 C-152.13588821 155.60093943 -152.13285042 152.24125917 -152.12816668 148.88152134 C-152.13050784 147.89455307 -152.13284901 146.90758479 -152.13526112 145.89070839 C-152.1327576 145.00429891 -152.13025408 144.11788942 -152.1276747 143.20461905 C-152.12760694 142.43507841 -152.12753918 141.66553777 -152.12746937 140.87267771 C-152.00232553 139.12534916 -152.00232553 139.12534916 -151.00232553 138.12534916 C-150.76804776 136.10940335 -150.58896429 134.08687516 -150.43982553 132.06284916 C-150.35603647 130.9581226 -150.27224741 129.85339604 -150.18591928 128.71519291 C-150.12533335 127.86054448 -150.06474741 127.00589604 -150.00232553 126.12534916 C-149.34232553 126.12534916 -148.68232553 126.12534916 -148.00232553 126.12534916 C-148.02552866 125.5568726 -148.04873178 124.98839604 -148.07263803 124.40269291 C-148.19424241 119.19976269 -147.67956045 115.05222673 -146.00232553 110.12534916 C-145.34232553 110.12534916 -144.68232553 110.12534916 -144.00232553 110.12534916 C-144.00232553 108.14534916 -144.00232553 106.16534916 -144.00232553 104.12534916 C-143.34232553 104.12534916 -142.68232553 104.12534916 -142.00232553 104.12534916 C-141.89920053 103.48597416 -141.79607553 102.84659916 -141.68982553 102.18784916 C-140.7632948 98.06057591 -139.38571924 94.11891968 -138.00232553 90.12534916 C-137.34232553 90.12534916 -136.68232553 90.12534916 -136.00232553 90.12534916 C-136.00232553 88.80534916 -136.00232553 87.48534916 -136.00232553 86.12534916 C-135.34232553 86.12534916 -134.68232553 86.12534916 -134.00232553 86.12534916 C-133.85795053 85.50659916 -133.71357553 84.88784916 -133.56482553 84.25034916 C-133.00232553 82.12534916 -133.00232553 82.12534916 -132.00232553 80.12534916 C-131.34232553 80.12534916 -130.68232553 80.12534916 -130.00232553 80.12534916 C-130.00232553 78.80534916 -130.00232553 77.48534916 -130.00232553 76.12534916 C-129.34232553 76.12534916 -128.68232553 76.12534916 -128.00232553 76.12534916 C-128.00232553 74.80534916 -128.00232553 73.48534916 -128.00232553 72.12534916 C-127.34232553 72.12534916 -126.68232553 72.12534916 -126.00232553 72.12534916 C-126.00232553 71.46534916 -126.00232553 70.80534916 -126.00232553 70.12534916 C-125.34232553 70.12534916 -124.68232553 70.12534916 -124.00232553 70.12534916 C-124.00232553 69.46534916 -124.00232553 68.80534916 -124.00232553 68.12534916 C-123.34232553 68.12534916 -122.68232553 68.12534916 -122.00232553 68.12534916 C-122.00232553 66.80534916 -122.00232553 65.48534916 -122.00232553 64.12534916 C-121.34232553 64.12534916 -120.68232553 64.12534916 -120.00232553 64.12534916 C-120.00232553 63.46534916 -120.00232553 62.80534916 -120.00232553 62.12534916 C-119.34232553 62.12534916 -118.68232553 62.12534916 -118.00232553 62.12534916 C-118.00232553 61.46534916 -118.00232553 60.80534916 -118.00232553 60.12534916 C-117.34232553 60.12534916 -116.68232553 60.12534916 -116.00232553 60.12534916 C-116.00232553 59.46534916 -116.00232553 58.80534916 -116.00232553 58.12534916 C-115.34232553 58.12534916 -114.68232553 58.12534916 -114.00232553 58.12534916 C-113.85795053 57.50659916 -113.71357553 56.88784916 -113.56482553 56.25034916 C-113.00232553 54.12534916 -113.00232553 54.12534916 -112.00232553 52.12534916 C-111.34232553 52.12534916 -110.68232553 52.12534916 -110.00232553 52.12534916 C-110.00232553 51.46534916 -110.00232553 50.80534916 -110.00232553 50.12534916 C-109.34232553 50.12534916 -108.68232553 50.12534916 -108.00232553 50.12534916 C-108.00232553 49.46534916 -108.00232553 48.80534916 -108.00232553 48.12534916 C-107.34232553 48.12534916 -106.68232553 48.12534916 -106.00232553 48.12534916 C-106.00232553 47.46534916 -106.00232553 46.80534916 -106.00232553 46.12534916 C-105.34232553 46.12534916 -104.68232553 46.12534916 -104.00232553 46.12534916 C-104.00232553 45.46534916 -104.00232553 44.80534916 -104.00232553 44.12534916 C-101.00232553 42.12534916 -101.00232553 42.12534916 -98.00232553 42.12534916 C-98.00232553 41.46534916 -98.00232553 40.80534916 -98.00232553 40.12534916 C-97.34232553 40.12534916 -96.68232553 40.12534916 -96.00232553 40.12534916 C-96.00232553 39.46534916 -96.00232553 38.80534916 -96.00232553 38.12534916 C-95.34232553 38.12534916 -94.68232553 38.12534916 -94.00232553 38.12534916 C-94.00232553 37.46534916 -94.00232553 36.80534916 -94.00232553 36.12534916 C-93.34232553 36.12534916 -92.68232553 36.12534916 -92.00232553 36.12534916 C-92.00232553 35.46534916 -92.00232553 34.80534916 -92.00232553 34.12534916 C-89.00232553 32.12534916 -89.00232553 32.12534916 -86.00232553 32.12534916 C-86.00232553 31.46534916 -86.00232553 30.80534916 -86.00232553 30.12534916 C-85.34232553 30.12534916 -84.68232553 30.12534916 -84.00232553 30.12534916 C-84.00232553 29.46534916 -84.00232553 28.80534916 -84.00232553 28.12534916 C-83.34232553 28.12534916 -82.68232553 28.12534916 -82.00232553 28.12534916 C-82.00232553 27.46534916 -82.00232553 26.80534916 -82.00232553 26.12534916 C-80.68232553 26.12534916 -79.36232553 26.12534916 -78.00232553 26.12534916 C-78.00232553 25.46534916 -78.00232553 24.80534916 -78.00232553 24.12534916 C-71.37732553 20.12534916 -71.37732553 20.12534916 -68.00232553 20.12534916 C-68.00232553 19.46534916 -68.00232553 18.80534916 -68.00232553 18.12534916 C-66.68232553 18.12534916 -65.36232553 18.12534916 -64.00232553 18.12534916 C-64.00232553 17.46534916 -64.00232553 16.80534916 -64.00232553 16.12534916 C-62.68232553 16.12534916 -61.36232553 16.12534916 -60.00232553 16.12534916 C-60.00232553 15.46534916 -60.00232553 14.80534916 -60.00232553 14.12534916 C-58.68232553 14.12534916 -57.36232553 14.12534916 -56.00232553 14.12534916 C-56.00232553 13.46534916 -56.00232553 12.80534916 -56.00232553 12.12534916 C-51.8249508 10.53396831 -48.47071769 9.91256859 -44.00232553 10.12534916 C-44.00232553 9.46534916 -44.00232553 8.80534916 -44.00232553 8.12534916 C-42.02232553 8.12534916 -40.04232553 8.12534916 -38.00232553 8.12534916 C-38.00232553 7.46534916 -38.00232553 6.80534916 -38.00232553 6.12534916 C-32.98920474 4.49063586 -28.30053712 3.76071528 -23.04138803 3.37144291 C-21.010371 3.33915692 -21.010371 3.33915692 -20.00232553 2.12534916 C-16.79245623 1.85536016 -13.59001694 1.67923479 -10.37341928 1.51988041 C-6.46587838 1.30153998 -3.80182777 0.0003414 0 0 Z M87.99767447 141.12534916 C87.11450552 141.73612309 87.11450552 141.73612309 86.21349478 142.35923588 C74.45498985 150.53441264 63.00327159 159.13472491 52.47423697 168.85972416 C50.4753986 170.68831446 48.44762768 172.45574287 46.39220572 174.21909916 C41.56477556 178.43380836 37.01901424 182.91793033 32.48912954 187.44859135 C31.07099163 188.86454864 29.64470782 190.27233205 28.21837759 191.68003666 C22.03456744 197.85095493 16.43762839 204.29634363 10.99767447 211.12534916 C9.92570345 212.40806538 8.84940169 213.68718516 7.76720572 214.96128666 C-5.75073835 231.05226124 -16.8558245 248.75823392 -27.00232553 267.12534916 C-27.44640757 267.91780034 -27.8904896 268.71025151 -28.34802866 269.52671635 C-49.5319954 307.52069411 -63.2060123 350.06322606 -69.00232553 393.12534916 C-69.17965219 394.32707768 -69.35697886 395.5288062 -69.53967905 396.76695073 C-71.39523067 410.31071467 -71.34317554 423.89806455 -71.31799936 437.54429448 C-71.31338896 440.25084471 -71.32022561 442.95694326 -71.33850718 445.6634351 C-71.45907799 463.68895209 -70.57839797 481.27383437 -68.00232553 499.12534916 C-67.85281946 500.16843739 -67.70331339 501.21152562 -67.54927683 502.28622258 C-58.17654268 566.81113073 -30.51348775 627.90390528 10.99767447 678.12534916 C12.19070181 679.57941166 12.19070181 679.57941166 13.40783072 681.06284916 C23.90343147 693.73559256 35.05801319 705.88812855 47.43468618 716.7493726 C49.10395983 718.21891747 50.75562637 719.70696394 52.40783072 721.19566166 C72.94220246 739.5270376 96.00592645 754.7331575 119.99767447 768.12534916 C120.67024282 768.5075562 121.34281118 768.88976323 122.0357604 769.28355229 C163.40185327 792.72640552 210.86812539 806.13121901 257.99767447 811.12534916 C259.36424185 811.27109379 259.36424185 811.27109379 260.75841665 811.41978276 C271.93574446 812.44342162 283.15817375 812.36717022 294.37267447 812.37534916 C295.99873617 812.37735829 295.99873617 812.37735829 297.65764761 812.379408 C315.6342663 812.37460328 333.17119971 811.51969223 350.99767447 809.12534916 C351.86698599 809.01851811 352.73629751 808.91168705 353.63195181 808.8016187 C359.13470713 808.12227996 364.56127015 807.21303139 369.99767447 806.12534916 C371.05116079 805.91458745 372.10464712 805.70382573 373.19005728 805.48667729 C405.91965605 798.75279274 437.38463783 787.57588536 467.03966665 772.13902104 C469.06199122 771.09205201 471.09536559 770.06906631 473.13048697 769.04722416 C496.30301471 757.27343695 517.66053592 741.42534994 536.99767447 724.12534916 C537.92193228 723.30034916 538.84619009 722.47534916 539.79845572 721.62534916 C541.37716052 720.20715001 542.95225526 718.78490375 544.52111197 717.35581791 C545.91354654 716.10174829 547.31251978 714.85457068 548.73327017 713.63267338 C561.16791627 702.92493262 573.03520875 691.18142265 582.99767447 678.12534916 C584.09203546 676.74486051 585.18858977 675.36610914 586.28673697 673.98863041 C593.68554843 664.6651857 600.66736702 655.20586195 606.99767447 645.12534916 C607.67298208 644.05655522 607.67298208 644.05655522 608.36193228 642.96616948 C633.79066071 602.44403541 652.21620316 557.65803236 660.68517447 510.50034916 C660.83519918 509.66898442 660.9852239 508.83761967 661.13979483 507.98106205 C678.44221399 411.33022619 654.28677547 312.24886893 598.84093618 231.75816166 C595.08091678 226.38755912 591.12879704 221.21652135 586.99767447 216.12534916 C586.26548697 215.20238041 585.53329947 214.27941166 584.77892447 213.32847416 C576.00379946 202.39046623 566.36134725 192.38664347 556.49767447 182.43784916 C555.63174673 181.55886967 554.765819 180.67989018 553.87365103 179.77427495 C547.89510746 173.78785599 541.60092001 168.40647732 534.99767447 163.12534916 C533.18259417 161.56584732 531.36951121 160.00401105 529.56017447 158.43784916 C515.14281074 146.43888193 499.25022064 136.4252973 482.99767447 127.12534916 C481.70289175 126.37922368 481.70289175 126.37922368 480.38195181 125.61802495 C439.19898246 102.0296931 394.70540617 88.29103701 347.99767447 81.12534916 C346.35871206 80.85633793 346.35871206 80.85633793 344.68663931 80.58189213 C256.17471252 66.32313189 161.18738336 90.47235205 87.99767447 141.12534916 Z M741.99767447 779.12534916 C739.84573077 782.35326471 739.79681004 783.40935726 739.99767447 787.12534916 C740.98767447 786.46534916 741.97767447 785.80534916 742.99767447 785.12534916 C743.24789016 782.04169046 743.24789016 782.04169046 742.99767447 779.12534916 C742.66767447 779.12534916 742.33767447 779.12534916 741.99767447 779.12534916 Z M622.99767447 890.12534916 C622.99767447 891.11534916 622.99767447 892.10534916 622.99767447 893.12534916 C625.92361342 893.98172154 628.07941734 894.51208021 630.95470572 893.30113041 C632.67279178 892.30387068 634.33968833 891.21962001 635.99767447 890.12534916 C635.99767447 889.46534916 635.99767447 888.80534916 635.99767447 888.12534916 C631.34661824 887.83465815 627.45303212 888.91711658 622.99767447 890.12534916 Z " fill="#FEFEFE" transform="translate(215.00232553482056,66.8746508359909)"/>
<path d="M0 0 C1.14581543 0.17128418 2.29163086 0.34256836 3.47216797 0.51904297 C32.48516091 4.89812455 61.02289807 13.54170251 88 25 C89.010625 25.42893555 90.02125 25.85787109 91.0625 26.29980469 C106.29654083 32.8529683 120.75070977 40.53121096 135 49 C136.12075928 49.66298096 136.12075928 49.66298096 137.26416016 50.33935547 C152.35258791 59.32783266 166.60742466 69.64499521 180 81 C180.94488281 81.76054687 181.88976562 82.52109375 182.86328125 83.3046875 C191.51705928 90.36324286 199.40719462 98.19074749 207.3125 106.0625 C208.15193649 106.89417191 208.15193649 106.89417191 209.0083313 107.74264526 C216.14415166 114.82643374 222.7793593 122.08233227 229 130 C230.16101669 131.43655497 231.32244654 132.87277615 232.484375 134.30859375 C290.27104214 206.92862041 312.52437046 293.72943303 310.19506836 400.1237793 C307.6999292 422.0387268 303.66204822 444.55039359 296.80664062 465.52880859 C295.92277003 468.23659859 295.07922146 470.95557638 294.234375 473.67578125 C279.10327835 521.51715183 254.18982541 566.32224223 221 604 C220.32453125 604.78632812 219.6490625 605.57265625 218.953125 606.3828125 C213.85127344 612.21632494 208.40410704 617.69760013 202.9375 623.1875 C202.18138428 623.94828857 201.42526855 624.70907715 200.64624023 625.49291992 C195.92517296 630.20063199 191.05904252 634.65996181 186 639 C184.95180276 639.9255881 183.90485077 640.85258904 182.859375 641.78125 C163.52226905 658.77211629 142.39773569 673.36485563 120 686 C119.31711914 686.38542969 118.63423828 686.77085937 117.93066406 687.16796875 C101.80694687 696.17941202 84.92727388 703.07107705 67.5625 709.3125 C66.42643311 709.72105225 65.29036621 710.12960449 64.11987305 710.55053711 C50.64543365 715.30524427 36.94076294 718.92224661 23 722 C22.23445801 722.17031738 21.46891602 722.34063477 20.68017578 722.51611328 C-4.60547497 728.06840552 -29.93997107 730.18726916 -55.78271484 730.18530273 C-58.96595903 730.18747675 -62.14884857 730.20565893 -65.33203125 730.22460938 C-85.13914747 730.27895764 -104.54322562 728.72059897 -124 725 C-124.87785156 724.83661133 -125.75570313 724.67322266 -126.66015625 724.50488281 C-168.58778783 716.6179396 -209.32264131 701.94683105 -246 680 C-246.75796875 679.54689453 -247.5159375 679.09378906 -248.296875 678.62695312 C-264.34425763 668.94272966 -279.59020057 657.98857702 -294 646 C-294.51256348 645.5762207 -295.02512695 645.15244141 -295.55322266 644.71582031 C-301.33724013 639.92569515 -307.07894131 635.14942561 -312.27978516 629.7175293 C-314.02842146 627.97162291 -315.85107472 626.38029648 -317.734375 624.78125 C-321.89553741 621.16185349 -325.69111793 617.29270607 -329.4375 613.25 C-330.09000732 612.5489917 -330.74251465 611.8479834 -331.41479492 611.12573242 C-336.52422293 605.59669874 -341.36453769 599.93512464 -346 594 C-346.76183594 593.04480469 -347.52367187 592.08960938 -348.30859375 591.10546875 C-395.67049402 530.86113161 -425.74809702 454.48788114 -426.23828125 377.390625 C-426.24812042 376.11753983 -426.25795959 374.84445465 -426.26809692 373.53279114 C-426.29558104 369.43853566 -426.30703769 365.34433911 -426.3125 361.25 C-426.31400496 360.20467165 -426.31400496 360.20467165 -426.31554031 359.13822556 C-426.33405432 338.1761835 -426.06379547 317.6444266 -422 297 C-421.75330566 295.71867187 -421.50661133 294.43734375 -421.25244141 293.1171875 C-417.77561813 275.36447697 -413.01757706 258.05956728 -407 241 C-406.68450195 240.10168457 -406.36900391 239.20336914 -406.04394531 238.27783203 C-393.3646879 202.63795044 -375.42188583 168.74113871 -352 139 C-351.4726123 138.32839844 -350.94522461 137.65679687 -350.40185547 136.96484375 C-334.38101916 116.6631167 -316.47692489 96.8583125 -296 81 C-294.12210881 79.39921883 -292.24728283 77.79483715 -290.375 76.1875 C-283.57311459 70.51192938 -276.38375821 65.4455534 -269.08447266 60.43310547 C-267.17828602 59.12257425 -265.28204774 57.79880789 -263.38671875 56.47265625 C-187.37145976 3.90135564 -90.66959973 -14.58254193 0 0 Z M-228 114 C-228.63341309 114.42635742 -229.26682617 114.85271484 -229.91943359 115.29199219 C-253.63975147 131.4210409 -276.45685112 151.24779326 -294 174 C-294.99129063 175.24030067 -295.98354837 176.47982877 -296.9765625 177.71875 C-316.96257784 202.91837692 -332.23970124 231.74094331 -343 262 C-343.4321582 263.19544434 -343.4321582 263.19544434 -343.87304688 264.41503906 C-349.92417989 281.26566477 -353.88908748 298.34419518 -356.75 316 C-357.06626343 317.94942505 -357.06626343 317.94942505 -357.38891602 319.93823242 C-359.61162859 334.16669139 -360.20396676 348.0671785 -360.1875 362.4375 C-360.18722809 363.32739624 -360.18695618 364.21729248 -360.18667603 365.13415527 C-360.16940894 377.41229475 -359.98605185 389.57167092 -358.30761719 401.75488281 C-357.98889691 404.08103496 -357.71627266 406.41002867 -357.4453125 408.7421875 C-349.41775993 473.19585411 -315.58082365 532.35918006 -270.375 577.875 C-269.89362579 578.36182251 -269.41225159 578.84864502 -268.91629028 579.35021973 C-262.29443977 586.02782516 -255.3985554 592.18920994 -248 598 C-247.32114746 598.53818359 -246.64229492 599.07636719 -245.94287109 599.63085938 C-235.45270864 607.86343472 -224.44412626 615.16604507 -213 622 C-212.2167334 622.46792969 -211.4334668 622.93585937 -210.62646484 623.41796875 C-180.99093457 640.89454824 -147.73219153 652.56134622 -114 659 C-112.9270166 659.21027832 -111.8540332 659.42055664 -110.74853516 659.63720703 C-93.40119097 662.8874215 -76.22713906 663.38812193 -58.625 663.4375 C-57.58239014 663.44376404 -56.53978027 663.45002808 -55.46557617 663.45648193 C3.61022951 663.68094115 67.01399183 645.02647658 115 610 C115.64727051 609.53239258 116.29454102 609.06478516 116.96142578 608.58300781 C136.12889336 594.68052236 154.70163781 579.1439139 170 561 C170.44585449 560.47857422 170.89170898 559.95714844 171.35107422 559.41992188 C218.48782093 504.07405332 243.19646881 433.92200509 243.25 361.625 C243.25200912 360.02227737 243.25200912 360.02227737 243.25405884 358.38717651 C243.25010372 343.85101483 242.9920306 329.63181753 240.41015625 315.28613281 C240.01212312 313.06757194 239.67054007 310.84722714 239.34375 308.6171875 C231.06341355 254.31753046 204.88930195 204.03957941 169 163 C167.84371094 161.67548828 167.84371094 161.67548828 166.6640625 160.32421875 C158.98657001 151.66346844 150.90871204 143.39926249 142 136 C141.50467773 135.58556641 141.00935547 135.17113281 140.49902344 134.74414062 C94.34833375 96.3168488 38.35299875 72.90054455 -21 65 C-22.2888208 64.81977295 -23.5776416 64.6395459 -24.90551758 64.45385742 C-35.72441755 63.00518739 -46.40493488 62.63842416 -57.3125 62.6875 C-58.61618027 62.69073273 -58.61618027 62.69073273 -59.94619751 62.69403076 C-119.81391945 62.93059451 -178.25702416 80.48383657 -228 114 Z " fill="#000000" transform="translate(570,149)"/>
<path d="M0 0 C1.00811946 -0.00226556 2.01623891 -0.00453111 3.05490744 -0.00686532 C6.43103598 -0.01319259 9.80712425 -0.01237677 13.18325806 -0.0115509 C15.60463004 -0.01454317 18.02600155 -0.01794585 20.44737244 -0.02172852 C26.34077539 -0.02964758 32.23416891 -0.03278285 38.1275761 -0.03334089 C42.91903274 -0.03381654 47.71048608 -0.03587371 52.50194168 -0.03904152 C66.09433867 -0.04784474 79.68672778 -0.05246137 93.27912764 -0.05171105 C94.01142134 -0.05167109 94.74371504 -0.05163113 95.49819946 -0.05158997 C96.23138982 -0.05154909 96.96458017 -0.0515082 97.71998842 -0.05146609 C109.60292495 -0.05105961 121.4858298 -0.0606303 133.36875717 -0.07472833 C145.57764199 -0.08909852 157.78651135 -0.09599818 169.99540484 -0.09513456 C176.84674647 -0.09480283 183.69805488 -0.09753932 190.54938889 -0.10831261 C196.99259954 -0.11837946 203.43575816 -0.11807569 209.87897301 -0.11079597 C212.24285293 -0.10974963 214.60673722 -0.11211595 216.97060966 -0.11815643 C220.19932046 -0.12587211 223.42778858 -0.12123418 226.65649414 -0.11352539 C228.05699731 -0.12124074 228.05699731 -0.12124074 229.48579347 -0.12911195 C240.39845531 -0.07160157 250.10345844 2.87478006 258.28726196 10.30949402 C263.74690732 16.28058156 267.05642928 23.11363847 267.95523071 31.13371277 C268.09638306 32.28613464 268.09638306 32.28613464 268.24038696 33.46183777 C268.81937266 42.66622582 265.40294799 51.70731961 259.45523071 58.69621277 C258.30999808 59.86346911 257.14577531 61.01270933 255.95523071 62.13371277 C254.84148071 63.24746277 254.84148071 63.24746277 253.70523071 64.38371277 C242.95152792 71.22697818 231.8012042 70.71413909 219.52090454 70.67961121 C217.460187 70.68835624 215.39947625 70.69884525 213.33877563 70.7109375 C207.77136831 70.73870396 202.20418358 70.74220425 196.63671708 70.74121761 C190.80840509 70.74435475 184.98019217 70.76998965 179.15193176 70.79319763 C168.12730876 70.83369978 157.10274482 70.85408477 146.0780589 70.86717153 C133.52176247 70.88306115 120.96556628 70.92148509 108.4093281 70.96176481 C82.59132931 71.04408462 56.77333336 71.09822622 30.95523071 71.13371277 C37.45855064 78.52775944 44.2609328 85.57322485 51.23892212 92.51506042 C52.34240288 93.61661675 53.4456523 94.71840486 54.5486908 95.82040405 C56.90434917 98.17292729 59.2615451 100.52389453 61.61998367 102.87363052 C65.35557285 106.59557721 69.08723728 110.32144278 72.81835938 114.04786682 C80.73600683 121.95446655 88.65789512 129.85681093 96.58023071 137.75871277 C105.14292567 146.29933634 113.70486263 154.84071198 122.26192033 163.38698423 C125.96499451 167.08510165 129.6704865 170.78077342 133.37790322 174.47453713 C135.68844195 176.77757653 137.996871 179.08272187 140.30475426 181.38842201 C141.36844335 182.45025149 142.43299022 183.51122254 143.4984951 184.57122993 C148.64109562 189.68814688 153.67721903 194.84140338 158.40062714 200.35228539 C160.86638045 203.17780344 163.50615588 205.81632499 166.16592407 208.45793152 C166.74240692 209.03456039 167.31888977 209.61118927 167.9128418 210.20529175 C169.78788798 212.07965038 171.66643306 213.95045821 173.54507446 215.82121277 C174.85808377 217.13235378 176.17087009 218.44371813 177.48344421 219.7552948 C180.91542728 223.18348514 184.3504042 226.60865998 187.78604126 230.03318787 C191.30065258 233.53751481 194.8123856 237.0447236 198.32437134 240.55168152 C205.19853116 247.41516134 212.0758614 254.27545478 218.95523071 261.13371277 C222.26090584 259.69363007 224.4058643 257.91307598 226.92251587 255.34587097 C227.69076691 254.5677858 228.45901794 253.78970062 229.25054932 252.98803711 C230.0734848 252.14536789 230.89642029 251.30269867 231.74429321 250.43449402 C233.50848786 248.649862 235.27281507 246.86536102 237.03726196 245.08097839 C239.80441188 242.27050762 242.56904329 239.45761965 245.33071899 236.64176941 C248.00361048 233.92021452 250.68595322 231.20824215 253.36929321 228.49699402 C254.18008331 227.66444595 254.99087341 226.83189789 255.82623291 225.97412109 C264.76689862 216.95756102 273.13882416 209.89504617 286.26773071 209.75871277 C292.77744016 209.84806172 297.4145694 210.76011772 302.95523071 214.13371277 C303.98648071 214.71121277 305.01773071 215.28871277 306.08023071 215.88371277 C309.94376444 218.90734786 312.9764442 222.24614393 315.95523071 226.13371277 C316.39480103 226.69445496 316.83437134 227.25519714 317.28726196 227.83293152 C321.92716181 235.12888711 320.81364459 245.66898871 319.51773071 253.91886902 C316.96042893 262.98130721 309.52983219 270.09085984 302.67007446 276.15324402 C301.81542603 276.90992371 300.96077759 277.66660339 300.08023071 278.44621277 C299.27843384 279.14359558 298.47663696 279.84097839 297.65054321 280.55949402 C295.57058456 282.54600525 293.75509775 284.49121826 291.89981079 286.67106628 C287.52711239 291.69699318 282.85272329 296.39823334 278.14663696 301.11027527 C277.22108505 302.03915558 276.29553314 302.96803589 275.3419342 303.92506409 C273.3947248 305.87821564 271.44550666 307.82933645 269.49502563 309.77922058 C267.01451077 312.25963365 264.54096426 314.74687252 262.06910801 317.23591042 C259.68282384 319.63607334 257.28927875 322.02895016 254.89663696 324.42277527 C254.01931412 325.30728363 253.14199127 326.19179199 252.23808289 327.10310364 C244.13358544 335.1778354 235.96389352 343.30991326 223.90591431 343.70549011 C211.130355 343.65005836 203.35139444 339.68197041 194.12391663 330.92030334 C193.1488309 330.0016815 193.1488309 330.0016815 192.15404648 329.06450164 C184.42308615 321.74227656 176.90052742 314.21150806 169.3812561 306.67326355 C167.78321996 305.07494452 166.18496198 303.47684726 164.58650208 301.87895203 C160.29603034 297.58876431 156.0086239 293.2955256 151.72180867 289.00168467 C147.22333937 284.49691549 142.72199126 279.99502471 138.22096252 275.49281311 C130.68228114 267.95138816 123.14534253 260.40822602 115.60977173 252.86369324 C107.85607691 245.10078675 100.10130814 237.33895563 92.34512329 229.57853699 C91.86517086 229.09832183 91.38521843 228.61810668 90.89072198 228.12333955 C88.48237927 225.71369158 86.07401576 223.30406441 83.6656419 220.89444757 C63.75894629 200.97742425 43.85591677 181.05674057 23.95523071 161.13371277 C23.83830378 182.86541919 23.75019665 204.59707355 23.69616985 226.32903099 C23.67041478 236.42011928 23.63531584 246.51101184 23.57803345 256.60197449 C23.52811588 265.39974814 23.4959201 274.19738001 23.48478824 282.99529135 C23.47828361 287.65153857 23.46305234 292.30738023 23.42658043 296.96349716 C23.39248878 301.35154606 23.38220415 305.73902469 23.38969231 310.12719345 C23.38832362 311.73235683 23.37846959 313.33754048 23.35920334 314.94258881 C23.2375601 325.6050143 24.27829615 333.59523763 31.33023071 341.94621277 C32.19648071 342.66808777 33.06273071 343.38996277 33.95523071 344.13371277 C34.47987915 344.57457214 35.00452759 345.01543152 35.54507446 345.46965027 C42.86820433 351.21523515 50.80424009 351.42875926 59.78977966 351.39440918 C60.85874456 351.39823473 61.92770945 351.40206027 63.02906722 351.40600175 C66.59931349 351.41629355 70.16939779 351.4123468 73.73965454 351.40837097 C76.30423633 351.41271957 78.86881682 351.41790322 81.43339539 351.42385864 C87.66978186 351.43585497 93.90610896 351.43840185 100.14250473 351.43605838 C105.21421159 351.43427259 110.2859054 351.43603045 115.3576107 351.44028282 C116.08049548 351.44087801 116.80338025 351.4414732 117.54817062 351.44208642 C119.01690931 351.44329823 120.48564799 351.44451236 121.95438667 351.4457288 C135.71789514 351.45659669 149.48137908 351.45444554 163.24488892 351.44834395 C175.82084054 351.44317677 188.39671464 351.45442632 200.97265092 351.47344217 C213.90143651 351.49284089 226.83018547 351.50107293 239.7589857 351.49731892 C247.01114655 351.4954098 254.26324146 351.49786615 261.5153904 351.51203346 C268.33705118 351.52522545 275.15855467 351.52265962 281.98021507 351.50962257 C284.47990344 351.507259 286.97960274 351.50998357 289.47927856 351.5182457 C292.89960805 351.52873318 296.3194196 351.52059584 299.73973083 351.50793457 C301.21262619 351.518996 301.21262619 351.518996 302.71527702 351.53028089 C311.88950795 351.45916079 320.90514446 349.97382988 328.16616821 344.01261902 C335.1016227 336.72887751 337.11149035 329.59575567 337.07548523 319.83213806 C337.07633965 318.98750858 337.07719408 318.14287909 337.0780744 317.27265477 C337.07972347 314.43823336 337.07421715 311.60387093 337.0687561 308.76945496 C337.06847408 306.73933412 337.06863226 304.70921318 337.06919861 302.67909241 C337.069486 297.16296736 337.06359862 291.64686398 337.05662465 286.13074398 C337.05038147 280.36783902 337.04978655 274.60493358 337.04859924 268.84202576 C337.04548878 257.92695305 337.03727921 247.01189033 337.02724975 236.09682202 C337.01607979 223.67133218 337.01057594 211.24584187 337.00555432 198.82034826 C336.99509638 173.25813089 336.97750243 147.69592239 336.95523071 122.13371277 C336.51607393 122.57655672 336.07691715 123.01940067 335.62445259 123.47566414 C324.90897732 134.27970389 314.18228569 145.07247087 303.44317818 155.85301399 C298.24996577 161.06679998 293.06053785 166.28424835 287.8800354 171.51066589 C283.36159861 176.06913047 278.83603465 180.62037941 274.30198276 185.1633147 C271.90429117 187.56619418 269.51017384 189.9723949 267.12457657 192.38728714 C264.45131123 195.0897418 261.76563006 197.77926266 259.07681274 200.4662323 C258.29925125 201.2581749 257.52168976 202.05011749 256.7205658 202.86605835 C247.83964898 211.68149574 238.93705095 217.03002603 226.26773071 217.57121277 C215.12329728 217.35848763 207.06554982 213.21935222 199.14663696 205.51652527 C191.01438868 196.67397366 187.21104505 186.93179244 187.60757446 174.82902527 C189.50114379 160.14854395 201.61174733 150.18587022 211.5128479 140.31730652 C212.89691856 138.93052257 214.2805641 137.54331422 215.66381836 136.15571594 C219.40728765 132.40315887 223.15701999 128.65692014 226.9082098 124.91208267 C230.84365498 120.98171822 234.77419844 117.04645664 238.70553589 113.11198425 C245.30926291 106.50462276 251.91718567 99.9014794 258.52749634 93.30070496 C266.15312918 85.68594661 273.77154281 78.06402262 281.38622928 70.43831921 C287.93902244 63.8764276 294.49573332 57.31846977 301.05568814 50.76373768 C304.96702901 46.85550362 308.87703292 42.9459577 312.78350067 39.03285217 C316.45944652 35.35109656 320.14031265 31.67432971 323.82490921 28.00123215 C325.17054593 26.65822307 326.51451505 25.31354055 327.85661697 23.96699905 C350.79676821 0.95801531 350.79676821 0.95801531 366.64273071 -0.11628723 C378.04471023 0.10089333 388.01278164 5.18871791 396.20523071 12.88371277 C406.19022044 23.49402509 409.42375124 34.98390444 409.33618164 49.27607727 C409.34086161 50.4616462 409.34554158 51.64721514 409.35036337 52.8687104 C409.36020575 56.13320099 409.35673574 59.39735253 409.34740472 62.66183424 C409.34058471 66.19303081 409.35111031 69.72418341 409.35934448 73.25537109 C409.37265517 80.16427939 409.36981528 87.07308967 409.36110656 93.98200174 C409.35431661 99.60282025 409.35341896 105.22361139 409.35667801 110.84443283 C409.35713771 111.64608849 409.35759741 112.44774414 409.35807104 113.27369239 C409.35903028 114.90259236 409.36000292 116.53149232 409.36098881 118.16039227 C409.36953576 133.42199529 409.35972121 148.68354418 409.34358771 163.94513832 C409.33020056 177.01258092 409.33250073 190.0799435 409.34634399 203.14738464 C409.36243873 218.34707323 409.36869568 233.54671433 409.3595072 248.74641025 C409.35855164 250.37097286 409.35760853 251.99553549 409.35667801 253.62009811 C409.35621518 254.41925293 409.35575236 255.21840775 409.3552755 256.04177938 C409.35269611 261.64642158 409.35703414 267.25103343 409.36411667 272.85567093 C409.37257593 279.69989617 409.37015999 286.54401835 409.35427444 293.38823195 C409.34644836 296.87379984 409.34320165 300.3591966 409.35322189 303.8447628 C409.41959057 334.28629125 404.84592238 360.79195723 384.95523071 385.13371277 C384.34163696 385.91230652 383.72804321 386.69090027 383.09585571 387.49308777 C371.55580895 401.40032361 355.79856031 410.67406936 338.89273071 416.50871277 C338.20984985 416.74759216 337.52696899 416.98647156 336.82339478 417.23258972 C321.50112817 422.17600666 305.44963248 421.42554517 289.55923462 421.40837097 C286.89350379 421.41272367 284.2277841 421.4178452 281.5620575 421.42385864 C275.10022948 421.43654148 268.63844313 421.43840743 262.17660476 421.43605838 C256.91915776 421.43426798 251.66172331 421.43604025 246.4042778 421.44028282 C245.27754201 421.44117561 245.27754201 421.44117561 244.12804388 421.44208642 C242.60157606 421.4432983 241.07510824 421.44451244 239.54864042 421.4457288 C225.2665715 421.45657944 210.98452627 421.45445351 196.70245604 421.44834395 C183.66790816 421.44317598 170.63343504 421.45443151 157.59890194 421.47344217 C144.17834714 421.49286412 130.75782763 421.50106902 117.3372587 421.49731892 C109.81730904 421.49541361 102.297423 421.49782884 94.77748489 421.51203346 C88.37619452 421.5240039 81.97500693 421.52528914 75.57371499 421.5132433 C72.31492999 421.50739424 69.05636921 421.50780161 65.79759026 421.5182457 C32.42150242 421.6174468 5.2330217 414.31615317 -19.23226929 390.44621277 C-25.66078178 383.97314277 -30.67104182 377.12167137 -35.04476929 369.13371277 C-35.6802771 367.98644714 -36.31578491 366.83918152 -36.97055054 365.65715027 C-46.83611122 346.8167346 -47.79170434 326.95137627 -47.65441549 306.08648825 C-47.63664657 302.52831595 -47.64835381 298.97020944 -47.65608215 295.41201782 C-47.66666063 288.47479211 -47.65096078 281.53787435 -47.62594389 274.60069554 C-47.59779597 266.50489444 -47.59667017 258.40915287 -47.59650088 250.313311 C-47.59531819 235.86568433 -47.57047589 221.41819775 -47.53182983 206.97062683 C-47.49442575 192.97809672 -47.47322865 178.98566836 -47.4703064 164.99308777 C-47.47012359 164.12963469 -47.46994077 163.26618162 -47.46975242 162.3765633 C-47.46957345 161.51453977 -47.46939448 160.65251625 -47.46921009 159.7643708 C-47.46884465 158.02840415 -47.46847227 156.29243751 -47.46809292 154.55647087 C-47.4679074 153.70017587 -47.46772189 152.84388088 -47.46753075 151.96163755 C-47.46395646 138.58049756 -47.44550957 125.19937309 -47.42559968 111.81824895 C-47.41859662 106.98343624 -47.41380281 102.14862719 -47.41063832 97.31381051 C-47.40557781 89.65073886 -47.39408016 81.98773751 -47.36933803 74.32470195 C-47.35816443 70.8275668 -47.34999889 67.3305001 -47.3504715 63.83334541 C-47.34920872 60.03500987 -47.3356237 56.23690857 -47.31892395 52.43861389 C-47.32133903 51.34493181 -47.32375412 50.25124973 -47.32624239 49.12442577 C-47.22246167 34.00167819 -44.04527927 22.57749299 -33.51742554 11.39933777 C-23.58762843 2.30094547 -13.05592496 -0.02155184 0 0 Z " fill="#010101" transform="translate(331.0447692871094,319.8662872314453)"/>
<path d="M0 0 C4.21878192 -0.19622241 7.17010894 0.19769832 11 2 C11 2.66 11 3.32 11 4 C12.32 4 13.64 4 15 4 C15 4.66 15 5.32 15 6 C15.86625 6.2165625 15.86625 6.2165625 16.75 6.4375 C18.83333333 6.95833333 20.91666667 7.47916667 23 8 C23 8.66 23 9.32 23 10 C24.32 10 25.64 10 27 10 C27 10.66 27 11.32 27 12 C27.804375 12.1546875 27.804375 12.1546875 28.625 12.3125 C31.62502044 13.18092697 34.2379535 14.55620296 37 16 C37 16.66 37 17.32 37 18 C37.928125 18.2165625 37.928125 18.2165625 38.875 18.4375 C41 19 41 19 43 20 C43 20.66 43 21.32 43 22 C43.67933594 22.21011719 44.35867188 22.42023438 45.05859375 22.63671875 C48.96381965 24.44671057 51.84370162 26.98965137 55.0625 29.8125 C55.67416016 30.33392578 56.28582031 30.85535156 56.91601562 31.39257812 C60.35205951 34.3680064 63.20830962 37.39575941 66 41 C67.17369141 42.12535156 67.17369141 42.12535156 68.37109375 43.2734375 C72.36898116 47.41983484 75.40684357 52.17768762 78.62695312 56.9375 C79.38588867 58.03964844 79.38588867 58.03964844 80.16015625 59.1640625 C80.61011963 59.82873535 81.06008301 60.4934082 81.52368164 61.17822266 C83.14688086 63.18125103 84.88618392 64.53830963 87 66 C85.92071644 60.243821 83.77646191 57.30878958 79.8203125 53.0546875 C76.45197024 49.2526531 73 45.19897581 73 40 C72.34 40 71.68 40 71 40 C71 38.02 71 36.04 71 34 C74.83000023 34.54714289 76.50719706 36.10513208 79 39 C79.680625 40.1446875 79.680625 40.1446875 80.375 41.3125 C81.76322017 43.60840259 83.07892953 45.23564791 84.875 47.1875 C88.90821196 51.7752786 93 57.75258915 93 64 C93.99 64.33 94.98 64.66 96 65 C96 65.66 96 66.32 96 67 C96.66 67 97.32 67 98 67 C99.97387813 71.76052962 100.0070238 74.96488101 99 80 C98.01 79.67 97.02 79.34 96 79 C94.8125 75.9375 94.8125 75.9375 94 73 C93.34 73 92.68 73 92 73 C92 72.34 92 71.68 92 71 C90.68 70.67 89.36 70.34 88 70 C89.46627023 74.10555664 90.95610817 78.02305002 93 81.875 C94.96372361 85.66058126 96.1200671 89.48646915 97.19140625 93.60546875 C97.92653646 96.07948079 97.92653646 96.07948079 99.45703125 98.359375 C105.59991872 108.87226597 105.35519874 122.51691443 105.61108398 134.30055237 C105.62990847 135.06118304 105.64873296 135.82181371 105.66812789 136.60549379 C106.22945702 159.48718486 106.12758775 182.37877373 106.10140657 205.26553953 C106.0956054 211.24119785 106.09468627 217.21685592 106.09362289 223.19251649 C106.0913107 235.3851576 106.08451362 247.57779204 106.07516479 259.77042961 C106.06246918 276.40825386 106.05649885 293.04607594 106.05223143 309.68390424 C106.05022714 317.46344896 106.0478995 325.24299358 106.04548645 333.02253819 C106.04524544 333.80071908 106.04500442 334.57889998 106.04475611 335.38066212 C106.03896797 353.82628563 106.03000874 372.27190738 106.02050781 390.7175293 C106.02009417 391.52287571 106.01968052 392.32822211 106.01925434 393.15797296 C106.01337502 404.59759803 106.00735618 416.03722303 106.001302 427.47684801 C105.99392115 441.42589015 105.98661504 455.37493233 105.97949219 469.32397461 C105.9790776 470.13357888 105.97866301 470.94318315 105.97823586 471.77732088 C105.96878942 490.25756314 105.96024318 508.73780523 105.95451355 527.21804905 C105.95415206 528.3821816 105.95415206 528.3821816 105.95378327 529.56983198 C105.95139842 537.31577067 105.94917035 545.06170939 105.94717702 552.80764819 C105.94286267 569.43682035 105.9357919 586.06598485 105.92312917 602.69515287 C105.91395912 614.79132641 105.90819259 626.88749736 105.90601182 638.98367422 C105.90471993 645.53628539 105.9016317 652.08888718 105.89425278 658.64149475 C105.88753109 664.63261051 105.88536196 670.6237096 105.88688838 676.61482877 C105.88661579 678.78744871 105.88462739 680.9600692 105.8807956 683.13268577 C105.87584555 686.07455687 105.87700444 689.01636326 105.87974548 691.95823574 C105.87683262 692.81078277 105.87391976 693.66332981 105.87091863 694.5417116 C105.88098768 698.50981392 106.0711774 702.11893137 107 706 C107.0880566 707.70663667 107.13058072 709.41609459 107.1328125 711.125 C107.13410156 712.07890625 107.13539063 713.0328125 107.13671875 714.015625 C107.13285156 715.00046875 107.12898437 715.9853125 107.125 717 C107.12886719 717.98484375 107.13273438 718.9696875 107.13671875 719.984375 C107.13542969 720.93828125 107.13414062 721.8921875 107.1328125 722.875 C107.13112061 724.17050781 107.13112061 724.17050781 107.12939453 725.4921875 C106.99575792 728.08221624 106.53438808 730.46591549 106 733 C105.93466565 734.93651019 105.91415697 736.87502861 105.9375 738.8125 C105.95103516 740.27623047 105.95103516 740.27623047 105.96484375 741.76953125 C105.97644531 742.50558594 105.98804688 743.24164062 106 744 C106.99 743.67 107.98 743.34 109 743 C109.66 737.06 110.32 731.12 111 725 C111.99 725 112.98 725 114 725 C117.79321779 740.32018057 117.14853674 756.332802 117 772 C116.34 772 115.68 772 115 772 C115.0928125 773.0209375 115.0928125 773.0209375 115.1875 774.0625 C114.94704912 777.82956382 113.55415948 780.58084915 112 784 C111.62691369 785.32276056 111.26953585 786.65232077 111 788 C110.34 788 109.68 788 109 788 C109.020625 788.804375 109.04125 789.60875 109.0625 790.4375 C109 793 109 793 108 794 C108 795.99357714 108.00212021 797.98717666 108.01489258 799.98071289 C107.94375721 812.01425244 104.28139693 819.9552389 98 830 C97.44441406 830.96679688 96.88882813 831.93359375 96.31640625 832.9296875 C92.94007718 838.80395108 89.31693368 844.77072466 85 850 C84.34 850 83.68 850 83 850 C82.91492188 850.59167969 82.82984375 851.18335938 82.7421875 851.79296875 C80.36350686 858.8664138 68.21605902 864.53466946 62 868 C59.67578125 868.6953125 59.67578125 868.6953125 58 869 C58 869.66 58 870.32 58 871 C55.00262913 872.44302773 52.00164264 873.87838185 49 875.3125 C48.16082031 875.71662109 47.32164062 876.12074219 46.45703125 876.53710938 C41.37994976 878.95757846 36.32474444 881.18601166 31 883 C30.10498779 883.31445068 29.20997559 883.62890137 28.2878418 883.95288086 C19.43881784 886.88576818 10.5181709 888.53365897 1.33325195 889.97509766 C-1.19747829 890.376583 -3.72228405 890.80677335 -6.24804688 891.23828125 C-14.68278074 892.61719417 -21.65258989 893.54088684 -30 891 C-30.625 889.1875 -30.625 889.1875 -31 887 C-30.34 886.01 -29.68 885.02 -29 884 C-29.65653061 884.00222061 -30.31306122 884.00444122 -30.98948669 884.00672913 C-37.85195367 884.02893416 -44.71441035 884.04396989 -51.5769043 884.05493164 C-54.13452571 884.05994563 -56.69214427 884.06675848 -59.24975586 884.07543945 C-62.93604232 884.08763382 -66.62229072 884.09325779 -70.30859375 884.09765625 C-71.44332626 884.10281754 -72.57805878 884.10797882 -73.74717712 884.11329651 C-74.82761795 884.11337204 -75.90805878 884.11344757 -77.02124023 884.11352539 C-78.43021828 884.11685631 -78.43021828 884.11685631 -79.86766052 884.12025452 C-82.40392195 884.0228842 -84.83050143 883.80407733 -87.34559631 883.50099182 C-91.73125637 882.98784302 -96.03718784 882.85830546 -100.44921875 882.87060547 C-101.2429892 882.86885315 -102.03675964 882.86710083 -102.85458374 882.86529541 C-105.46557856 882.8609184 -108.07650454 882.86380931 -110.6875 882.8671875 C-112.54939791 882.86651117 -114.41129574 882.86553843 -116.27319336 882.86428833 C-120.19027542 882.86281515 -124.10733467 882.86494595 -128.02441406 882.86962891 C-132.90882799 882.87519904 -137.7931854 882.87212815 -142.67759705 882.86605644 C-146.54122289 882.86232965 -150.40483679 882.86364471 -154.26846313 882.86618423 C-156.05994677 882.86682751 -157.8514317 882.86612267 -159.64291382 882.86370468 C-172.06238545 882.85066848 -184.46635864 883.10263999 -196.88041139 883.43570828 C-215.95019925 883.94397235 -234.99684774 884.10651918 -254.07253647 884.04673767 C-264.16453731 884.01575377 -274.25659257 884.01126554 -284.34863281 884.00390625 C-285.48952008 884.00294543 -286.63040735 884.00198462 -287.80586696 884.00099468 C-324.06220974 883.97292692 -360.31838033 884.10182694 -396.57451475 884.21024132 C-401.32901619 884.22441018 -406.08351828 884.23835591 -410.83802032 884.25231934 C-431.23236167 884.31230141 -451.62669813 884.37380326 -472.02103189 884.4363091 C-487.07765864 884.48245074 -502.1342873 884.52790983 -517.19091797 884.57275391 C-518.19374844 884.5757409 -519.19657891 884.5787279 -520.22979818 884.58180541 C-525.26487903 884.59679909 -530.29995991 884.61178122 -535.33504081 884.62675762 C-576.55669934 884.7493825 -617.77835168 884.8739905 -659 885 C-659.99 887.475 -659.99 887.475 -661 890 C-663.64 890 -666.28 890 -669 890 C-669 889.34 -669 888.68 -669 888 C-671.64 888 -674.28 888 -677 888 C-677 887.34 -677 886.68 -677 886 C-676.34 886 -675.68 886 -675 886 C-675 885.34 -675 884.68 -675 884 C-673.68 884 -672.36 884 -671 884 C-671.64063431 880.9105018 -671.64063431 880.9105018 -673.85546875 880.05078125 C-680.30183716 877.94487356 -680.30183716 877.94487356 -687 878 C-687.9590625 878.9590625 -687.9590625 878.9590625 -688.9375 879.9375 C-691.87460373 882.87460373 -693.87570087 882.78681555 -698 883 C-701.08738214 882.38549868 -703.98122101 881.38274784 -706.9375 880.3125 C-707.69740234 880.05533203 -708.45730469 879.79816406 -709.24023438 879.53320312 C-714.39231823 877.74251301 -719.1664191 875.52402006 -724 873 C-724 872.34 -724 871.68 -724 871 C-724.70511719 870.74734375 -725.41023438 870.4946875 -726.13671875 870.234375 C-731.52314027 867.91226149 -736.19569977 864.3318134 -741 861 C-741.78632812 860.45601562 -742.57265625 859.91203125 -743.3828125 859.3515625 C-747.61678362 856.30889885 -750.92557024 853.22734092 -754 849 C-754 848.34 -754 847.68 -754 847 C-754.66 847 -755.32 847 -756 847 C-758.21034245 844.6070924 -759.7713747 842.01113906 -761 839 C-760.890625 836.8515625 -760.890625 836.8515625 -760.4375 834.6875 C-759.30613629 828.41651256 -762.64249608 824.08318873 -766 819 C-767.17938642 817.34834287 -768.36676736 815.7023619 -769.5625 814.0625 C-772.78491313 809.59361498 -774.82409412 805.06285955 -776.8125 799.94140625 C-777.93440128 797.1624863 -779.21759023 794.58058204 -780.625 791.9375 C-782.92697566 787.47832702 -784.24757396 783.0202312 -785.421875 778.15234375 C-785.79849588 776.03501343 -785.79849588 776.03501343 -787 775 C-787.04092937 772.66702567 -787.04241723 770.33294775 -787 768 C-785.63923874 770.65573318 -784.41989135 773.32409364 -783.30078125 776.08984375 C-766.77244453 816.4757113 -739.05604576 847.82161588 -698.61914062 865.35302734 C-673.00134821 876.03083645 -647.01911844 878.30940122 -619.56700134 878.26069641 C-617.13152546 878.26372212 -614.69605053 878.26761369 -612.26057726 878.27228898 C-606.99433725 878.28039484 -601.72813275 878.28238481 -596.46188927 878.27878571 C-588.63003452 878.27344751 -580.798217 878.27960517 -572.9663663 878.28786864 C-558.15966005 878.30306337 -543.35297098 878.30481833 -528.54625856 878.30234561 C-517.10620583 878.30050873 -505.66615868 878.30228084 -494.22610664 878.30657005 C-492.57905452 878.30717247 -490.9320024 878.30777367 -489.28495027 878.30837366 C-486.80258876 878.30928097 -484.32022725 878.31018964 -481.83786574 878.31110601 C-458.77405866 878.31952895 -435.71025368 878.32387586 -412.64644527 878.31969929 C-411.77799361 878.31954291 -410.90954194 878.31938654 -410.01477356 878.31922542 C-405.61372688 878.31841971 -401.2126802 878.31757394 -396.81163352 878.31671212 C-395.93766823 878.31654103 -395.06370294 878.31636994 -394.16325385 878.31619367 C-392.39588531 878.31584701 -390.62851677 878.31549848 -388.86114824 878.31514808 C-361.3739722 878.30979344 -333.88682826 878.3177167 -306.3996582 878.33618164 C-275.47264224 878.35693332 -244.54564615 878.36761822 -213.61862284 878.36360615 C-210.3159498 878.36321085 -207.01327676 878.3628493 -203.71060371 878.36250877 C-202.89748436 878.36241804 -202.08436501 878.36232731 -201.24660568 878.36223383 C-189.01235108 878.36107156 -176.77811667 878.36768793 -164.54386711 878.37832069 C-150.61588032 878.3904136 -136.68793777 878.39188488 -122.75995027 878.37953053 C-114.98216389 878.37293884 -107.2044835 878.37444684 -99.42670576 878.38811904 C-93.59322431 878.39742606 -87.75984269 878.39075683 -81.92637116 878.37827124 C-79.58596851 878.37564193 -77.24555325 878.37793439 -74.90516304 878.38600711 C-24.90164484 878.54633797 20.73076395 865.84037684 57 830 C59.47676828 827.43551284 61.75960234 824.7724311 64 822 C65.11955078 820.65421875 65.11955078 820.65421875 66.26171875 819.28125 C89.03477959 790.96686352 100.20884 756.54019296 100.12863445 720.33356857 C100.13038749 719.3140344 100.13214053 718.29450022 100.13394669 717.24407107 C100.13858319 713.84196048 100.13614726 710.43989308 100.13371277 707.03778076 C100.13558192 704.56822177 100.13788304 702.09866308 100.14057809 699.62910485 C100.14541451 694.26698006 100.1471521 688.90486768 100.14612198 683.54274178 C100.14459385 675.56873036 100.14876587 667.5947289 100.1539966 659.62071942 C100.16365743 644.54881427 100.16648037 629.47691253 100.16705366 614.40500465 C100.16751354 602.7644712 100.16957364 591.12393908 100.17275429 579.48340607 C100.17365186 576.13038453 100.17454167 572.77736298 100.17542917 569.42434144 C100.17565021 568.59072776 100.17587126 567.75711408 100.17609901 566.89823938 C100.18225142 543.45683699 100.18619975 520.01543506 100.18575573 496.57403183 C100.18574015 495.69060299 100.18572457 494.80717414 100.18570852 493.89697473 C100.18562542 489.41958024 100.18552638 484.94218576 100.18542381 480.46479127 C100.18540387 479.57559411 100.18538392 478.68639694 100.18536337 477.77025441 C100.18532294 475.97208215 100.18528114 474.17390989 100.18523798 472.37573763 C100.18462524 444.39973786 100.1921323 416.42375021 100.20581055 388.44775391 C100.22117831 357.00339924 100.22977637 325.55905254 100.22884732 294.11469388 C100.2287727 290.76041492 100.22872399 287.40613596 100.22869301 284.05185699 C100.22868135 283.22597271 100.2286697 282.40008842 100.22865769 281.54917733 C100.22862695 268.27193312 100.23500645 254.99469946 100.24362527 241.71745838 C100.25211098 228.36902438 100.2530845 215.02060576 100.24651595 201.67217055 C100.24282656 193.74792224 100.24463439 185.82372074 100.25445829 177.89947741 C100.26118147 171.97445122 100.25738842 166.04946143 100.24958507 160.12443557 C100.24804954 157.7335305 100.24986821 155.34262034 100.25544515 152.95172128 C100.34370267 112.41919003 89.6583735 76.21528045 63 45 C62.5447998 44.46503906 62.08959961 43.93007812 61.62060547 43.37890625 C55.37266377 36.11664507 48.65724546 29.78638308 41 24 C40.48099121 23.60071289 39.96198242 23.20142578 39.42724609 22.79003906 C27.44541437 13.61840689 14.27477892 6.01546286 0 1 C0 0.67 0 0.34 0 0 Z M101 769 C98.8480563 772.22791555 98.79913557 773.28400809 99 777 C99.99 776.34 100.98 775.68 102 775 C102.2502157 771.91634129 102.2502157 771.91634129 102 769 C101.67 769 101.34 769 101 769 Z M-18 880 C-18 880.99 -18 881.98 -18 883 C-15.07406105 883.85637238 -12.91825712 884.38673104 -10.04296875 883.17578125 C-8.32488268 882.17852152 -6.65798613 881.09427085 -5 880 C-5 879.34 -5 878.68 -5 878 C-9.65105623 877.70930899 -13.54464235 878.79176742 -18 880 Z " fill="#EBECEC" transform="translate(856,77)"/>
<path d="M0 0 C0.98864044 -0.00262848 0.98864044 -0.00262848 1.99725342 -0.00531006 C4.18146385 -0.00971754 6.36559339 -0.00679041 8.54980469 -0.00341797 C10.07899999 -0.00409229 11.6081952 -0.00506338 13.13739014 -0.00631714 C16.35202041 -0.00779341 19.56662295 -0.00564537 22.78125 -0.00097656 C26.85903822 0.00466297 30.93675978 0.00147845 35.01454544 -0.00454903 C38.1805672 -0.00820626 41.34657385 -0.0069917 44.51259613 -0.00442123 C46.01296751 -0.00376311 47.51334035 -0.00454047 49.01371002 -0.00690079 C58.87832758 -0.01899272 68.63558512 0.34808915 78.47167969 1.12939453 C78.47167969 1.78939453 78.47167969 2.44939453 78.47167969 3.12939453 C64.35959749 4.25375099 50.27283473 4.282962 36.12304688 4.25976562 C32.2157812 4.25438641 28.30862947 4.25974966 24.40136719 4.26611328 C21.87792944 4.26545271 19.35449176 4.26417197 16.83105469 4.26220703 C15.10867584 4.26524338 15.10867584 4.26524338 13.35150146 4.26834106 C5.68419835 4.246476 -1.89245364 3.81795155 -9.52832031 3.12939453 C-9.52832031 2.46939453 -9.52832031 1.80939453 -9.52832031 1.12939453 C-6.14180931 0.00055753 -3.57056266 0.00238388 0 0 Z " fill="#F0F0F0" transform="translate(288.5283203125,967.87060546875)"/>
<path d="M0 0 C0.66 0 1.32 0 2 0 C8.09505235 10.08175325 10.3781691 18.27675787 10 30 C7 29 7 29 5.8671875 27.13671875 C3.49348212 21.27721766 2.5483145 16.08856681 2.21484375 9.78515625 C1.94453511 6.28097329 1.13029076 3.31551956 0 0 Z " fill="#F0F0F0" transform="translate(955,159)"/>
<path d="M0 0 C0.66 0 1.32 0 2 0 C2 1.98 2 3.96 2 6 C1.34 6 0.68 6 0 6 C0 4.02 0 2.04 0 0 Z " fill="#F1F2F1" transform="translate(967,207)"/>
</svg>
